<svg width="4244" height="1660" viewBox="0 0 4244 1660" fill="none" xmlns="http://www.w3.org/2000/svg">
<path d="M3409.87 1625.17H553.996V1279.34H3409.87V1625.17Z" fill="#6E4D42"/>
<path d="M557.33 1621.83H3406.55V1282.66H557.33V1621.83ZM3413.21 1628.5H550.665V1276H3413.21V1628.5Z" fill="#6B184E"/>
<path d="M3974.24 318.183V1594.59C3974.24 1605.42 3969.88 1615.28 3962.7 1622.37C3955.62 1629.74 3945.48 1634.25 3934.5 1634.25H3366.1C3355.11 1634.25 3344.97 1629.74 3337.87 1622.37C3330.72 1615.28 3326.36 1605.42 3326.36 1594.59V1527.47C3326.36 1522.25 3326.22 1517.04 3325.8 1511.98C3324.12 1487.94 3318.36 1464.72 3309.2 1443.39C3308.64 1441.94 3308 1440.55 3307.38 1439.16C3301.34 1425.82 3294.05 1413.18 3285.64 1401.5C3249.5 1351.62 3192.38 1318.06 3126.95 1315.76C3083.1 1314.23 3042.24 1326.32 3008.15 1348.14C2973.94 1370.03 2946.58 1401.64 2930.03 1439.16C2929.42 1440.55 2928.77 1441.94 2928.3 1443.39C2923.86 1453.88 2920.36 1464.87 2917.82 1476.19C2917.82 1476.32 2917.73 1476.4 2917.73 1476.54C2917.04 1479.32 2916.51 1482.09 2916 1484.95C2915.36 1488.48 2914.83 1492.03 2914.33 1495.64C2913.57 1500.99 2913.07 1506.48 2912.79 1511.98C2912.68 1515.51 2912.51 1518.99 2912.51 1522.53V1594.59C2912.51 1616.47 2894.73 1634.25 2872.8 1634.25H1617.77C1595.89 1634.25 1578.11 1616.47 1578.11 1594.59V1527.47C1578.11 1518.57 1577.55 1509.82 1576.44 1501.2C1564.13 1400.8 1482.02 1319.44 1378.84 1315.76C1268.43 1311.87 1176.38 1394.55 1165.4 1501.2C1164.7 1508.21 1164.35 1515.31 1164.35 1522.53V1585.48C1164.35 1606.73 1147.82 1630.51 1127.88 1634.25H1074.8C1052.84 1634.25 1035.06 1616.47 1035.06 1594.59V1527.53C1035.06 1524.05 1034.99 1520.52 1034.78 1517.04C1034.71 1514.47 1034.5 1511.83 1034.3 1509.26C1034.22 1508.08 1034.08 1506.98 1033.95 1505.79C1033.67 1502.93 1033.32 1500.16 1032.98 1497.31C1032.9 1497.03 1032.9 1496.75 1032.83 1496.48C1032.35 1493.07 1031.72 1489.74 1031.1 1486.4C1012.9 1392.88 933.897 1319.31 835.79 1315.76C718.158 1311.59 621.373 1405.8 621.373 1522.53V1585.55C621.373 1610.63 598.308 1629.45 573.641 1624.32L73.5301 1540.04C45.3198 1535.32 24.6134 1510.86 24.6134 1482.23V324.443C24.6134 239.119 93.7474 169.977 178.999 169.977H3825.98C3907.89 169.977 3974.24 236.268 3974.24 318.183" fill="#FFB640"/>
<path d="M3119.55 1312.29C3122.04 1312.29 3124.56 1312.34 3127.07 1312.42C3191.09 1314.66 3249.88 1346.41 3288.34 1399.53C3296.84 1411.36 3304.28 1424.22 3310.43 1437.77C3311.08 1439.24 3311.72 1440.68 3312.31 1442.2C3321.79 1464.22 3327.44 1487.66 3329.14 1511.73C3329.51 1516.34 3329.7 1521.5 3329.7 1527.46V1594.58C3329.7 1604.24 3333.45 1613.26 3340.25 1620C3346.93 1626.96 3356.36 1630.92 3366.12 1630.92H3934.51C3944.27 1630.92 3953.67 1626.96 3960.33 1620.05C3967.18 1613.26 3970.93 1604.24 3970.93 1594.58V318.171C3970.93 238.294 3905.9 173.296 3826 173.296H179.001C95.7087 173.296 27.9503 241.091 27.9503 324.408V1482.24C27.9503 1509.34 47.349 1532.26 74.0838 1536.74L574.199 1621.03C585.081 1623.29 596.134 1620.61 604.645 1613.69C613.161 1606.77 618.044 1596.5 618.044 1585.54V1522.53C618.044 1464.98 640.869 1411.26 682.315 1371.26C723.736 1331.28 778.288 1310.33 835.913 1312.42C933.581 1315.96 1015.19 1387.24 1034.37 1485.76C1035.04 1489.33 1035.66 1492.64 1036.14 1496.01L1036.42 1497.98C1036.71 1500.48 1037.02 1502.94 1037.26 1505.46C1037.43 1506.85 1037.56 1507.93 1037.62 1509.06C1037.83 1511.61 1038.05 1514.32 1038.11 1516.94C1038.32 1520.38 1038.39 1524 1038.39 1527.53V1594.58C1038.39 1614.61 1054.73 1630.92 1074.81 1630.92H1127.89C1144.94 1627.65 1161.02 1605.97 1161.02 1585.48V1522.53C1161.02 1515.26 1161.38 1507.97 1162.09 1500.86C1173.37 1391.3 1268.58 1308.44 1378.97 1312.42C1480.73 1316.05 1567.05 1397.04 1579.76 1500.78C1580.88 1509.49 1581.45 1518.46 1581.45 1527.46V1594.58C1581.45 1614.61 1597.75 1630.92 1617.78 1630.92H2872.79C2892.87 1630.92 2909.2 1614.61 2909.2 1594.58V1522.53C2909.2 1518.94 2909.34 1515.42 2909.48 1511.84C2909.79 1505.93 2910.29 1500.33 2911.05 1495.17C2911.52 1491.54 2912.08 1487.94 2912.73 1484.36C2913.2 1481.58 2913.73 1478.85 2914.4 1476.13L2914.57 1475.45C2917.2 1463.78 2920.81 1452.56 2925.23 1442.09C2925.68 1440.77 2926.32 1439.28 2927.02 1437.78C2943.74 1399.82 2971.18 1367.85 3006.34 1345.33C3040.23 1323.65 3079.25 1312.29 3119.55 1312.29ZM3934.51 1637.58H3366.12C3354.54 1637.58 3343.38 1632.88 3335.49 1624.68C3327.47 1616.74 3323.02 1606.02 3323.02 1594.58V1527.46C3323.02 1521.69 3322.85 1516.7 3322.49 1512.24C3320.87 1488.88 3315.36 1466.17 3306.13 1444.7C3305.54 1443.18 3304.95 1441.85 3304.34 1440.52C3298.41 1427.37 3291.19 1414.89 3282.94 1403.44C3245.69 1352.01 3188.77 1321.26 3126.85 1319.09C3085.23 1317.65 3044.79 1328.65 3009.94 1350.94C2975.88 1372.74 2949.31 1403.72 2933.09 1440.49C2932.5 1441.81 2931.91 1443.09 2931.46 1444.44C2927.13 1454.69 2923.69 1465.41 2921.14 1476.56L2920.98 1477.34C2920.31 1480.04 2919.77 1482.73 2919.3 1485.5C2918.68 1489.01 2918.12 1492.52 2917.65 1496.08C2916.92 1501.08 2916.45 1506.46 2916.14 1512.13C2916 1515.6 2915.89 1519.04 2915.89 1522.53V1594.58C2915.89 1618.29 2896.53 1637.58 2872.79 1637.58H1617.78C1594.08 1637.58 1574.78 1618.29 1574.78 1594.58V1527.46C1574.78 1518.76 1574.22 1510.06 1573.14 1501.62C1560.82 1401.06 1477.25 1322.6 1378.73 1319.09C1271.74 1315.21 1179.64 1395.46 1168.71 1501.54C1168.03 1508.41 1167.69 1515.48 1167.69 1522.53V1585.48C1167.69 1609.28 1149.38 1633.6 1128.5 1637.53L1074.81 1637.58C1051.05 1637.58 1031.73 1618.29 1031.73 1594.58V1527.53C1031.73 1524.12 1031.66 1520.65 1031.46 1517.24C1031.38 1514.61 1031.18 1512.04 1030.97 1509.53C1030.92 1508.45 1030.8 1507.5 1030.68 1506.52C1030.4 1503.64 1030.09 1501.24 1029.79 1498.78L1029.54 1496.94C1029.08 1493.66 1028.46 1490.46 1027.86 1487.25C1009.25 1391.57 930.222 1322.5 835.676 1319.09C779.874 1317.1 727.053 1337.34 686.944 1376.05C646.812 1414.78 624.712 1466.81 624.712 1522.53V1585.54C624.712 1598.52 618.931 1610.66 608.851 1618.86C598.769 1627.05 585.674 1630.24 572.965 1627.57L72.9762 1543.33C43.0252 1538.3 21.2827 1512.61 21.2827 1482.24V324.408C21.2827 237.428 92.0337 166.64 179.001 166.64H3826C3909.59 166.64 3977.58 234.603 3977.58 318.171V1594.58C3977.58 1606.02 3973.14 1616.74 3965.06 1624.73C3957.25 1632.88 3946.06 1637.58 3934.51 1637.58Z" fill="#6B184E"/>
<path d="M3974.22 1230.73V1421.39H3309.15C3308.59 1419.93 3307.98 1418.55 3307.36 1417.16C3301.3 1403.81 3294 1391.17 3285.59 1379.49C3249.48 1329.61 3192.36 1296.05 3126.91 1293.76C3083.08 1292.23 3042.22 1304.32 3008.1 1326.13C2973.92 1348.03 2946.53 1379.64 2930.02 1417.16C2929.37 1418.55 2928.76 1419.93 2928.28 1421.39H1945.55C1922.01 1421.39 1899.83 1410.2 1885.72 1391.31L1766.64 1230.73L1719.82 1167.65C1705.78 1148.68 1683.62 1137.57 1660.06 1137.57H24.5825V946.919H1756.02C1779.56 946.919 1801.73 958.025 1815.76 976.999L1934.92 1137.57L1981.68 1200.65C1995.79 1219.55 2017.95 1230.73 2041.5 1230.73H3974.22Z" fill="white"/>
<path d="M581.689 1600.91C580.675 1600.91 579.601 1600.8 578.47 1600.57C578.185 1600.51 577.902 1600.45 577.619 1600.41L77.606 1516.07C60.9913 1513.24 48.934 1498.99 48.934 1482.16V1425.25H83.2873C94.9726 1425.25 105.65 1420.92 113.799 1413.79L573.638 1491.31C576.39 1491.88 579.122 1492.15 581.802 1492.15C588.158 1492.15 594.229 1490.6 599.617 1487.84C597.921 1499.21 597.059 1510.8 597.059 1522.53V1585.48C597.059 1591.83 593.502 1595.67 591.382 1597.4C589.634 1598.83 586.294 1600.91 581.689 1600.91Z" fill="#D28644"/>
<path d="M1124.69 1609.93H1117.09C1116.93 1609.93 1116.77 1609.93 1116.61 1609.93C1116.43 1609.93 1116.27 1609.93 1116.11 1609.93H1074.81C1066.3 1609.93 1059.38 1603.05 1059.38 1594.59V1527.47C1059.38 1518.57 1058.87 1509.77 1057.9 1501.11C1063.14 1503.33 1068.87 1504.53 1074.81 1504.53H1140.71C1140.26 1510.48 1140.05 1516.51 1140.05 1522.53V1585.48C1140.05 1595.64 1131.89 1607.13 1124.69 1609.93Z" fill="#D39641"/>
<path d="M1140.71 1504.53H1074.81C1068.87 1504.53 1063.14 1503.33 1057.9 1501.11C1057.61 1498.45 1057.26 1495.81 1056.87 1493.19C1062.23 1496.2 1068.38 1497.87 1074.81 1497.87H1141.3C1141.27 1498.17 1141.23 1498.49 1141.21 1498.8C1141.02 1500.69 1140.85 1502.61 1140.71 1504.53Z" fill="#D28644"/>
<path d="M2872.88 1609.93H1617.78C1609.32 1609.93 1602.45 1603.05 1602.45 1594.58V1527.46C1602.45 1518.59 1601.94 1509.74 1600.94 1501.2H2872.81C2878.8 1501.2 2884.46 1499.88 2889.55 1497.51C2888.68 1505.75 2888.23 1514.11 2888.23 1522.53V1594.58C2888.23 1603.05 2881.33 1609.93 2872.88 1609.93Z" fill="#D28644"/>
<path d="M3862.81 1609.93H3366.12C3357.61 1609.93 3350.68 1603.05 3350.68 1594.58V1527.47C3350.68 1524.84 3350.63 1522.23 3350.55 1519.62C3355.32 1521.34 3360.61 1522.29 3366.14 1522.29H3422.69C3436.27 1530.49 3452.05 1535.12 3468.76 1535.12H3615.88C3634.09 1535.12 3651.22 1530.46 3666.18 1522.29H3862.81V1609.93Z" fill="#D28644"/>
<path d="M51.8167 297.062C64.3885 238.411 116.64 194.292 179 194.292H3826C3885.85 194.292 3935.91 236.911 3947.44 293.366C3920.63 255.165 3876.26 230.16 3826 230.16H178.989C126.234 230.16 79.6526 256.637 51.8167 297.062Z" fill="#FFDEA9"/>
<path d="M3878.5 1219.89H3974.22V318.196H3855.33C3827.18 318.196 3804.38 341.002 3804.38 369.145V1145.77C3804.38 1186.71 3837.55 1219.89 3878.5 1219.89Z" fill="#2CBEFF"/>
<path d="M3883.72 1196.74H3878.49C3850.38 1196.74 3827.54 1173.88 3827.54 1145.78V426.587H3863.42V1145.81C3863.42 1165.55 3871.15 1183.47 3883.72 1196.74Z" fill="#3F8CCA"/>
<path d="M2725.12 769.026H3055.53C3088.78 769.026 3115.75 742.082 3115.75 708.809V378.395C3115.75 345.145 3088.78 318.177 3055.53 318.177H2725.12C2691.85 318.177 2664.9 345.145 2664.9 378.395V708.809C2664.9 742.082 2691.85 769.026 2725.12 769.026Z" fill="#2CBEFF"/>
<path d="M2169.26 769.038H2499.68C2532.94 769.038 2559.9 742.079 2559.9 708.837V378.402C2559.9 345.141 2532.94 318.182 2499.68 318.182H2169.26C2136 318.182 2109.04 345.141 2109.04 378.402V708.837C2109.04 742.079 2136 769.038 2169.26 769.038Z" fill="#2CBEFF"/>
<path d="M1613.41 769.026H1943.85C1977.1 769.026 2004.06 742.08 2004.06 708.811V378.392C2004.06 345.141 1977.1 318.177 1943.85 318.177H1613.41C1580.16 318.177 1553.2 345.141 1553.2 378.392V708.811C1553.2 742.08 1580.16 769.026 1613.41 769.026Z" fill="#2CBEFF"/>
<path d="M1057.57 769.026H1387.98C1421.25 769.026 1448.21 742.08 1448.21 708.811V378.392C1448.21 345.141 1421.25 318.177 1387.98 318.177H1057.57C1024.32 318.177 997.357 345.141 997.357 378.392V708.811C997.357 742.08 1024.32 769.026 1057.57 769.026Z" fill="#2CBEFF"/>
<path d="M892.331 378.392V708.846C892.331 728.959 882.41 746.835 867.317 757.667C857.398 764.8 845.172 769.062 832.118 769.062H501.752C468.493 769.062 441.533 742.098 441.533 708.846V378.392C441.533 348.945 462.75 324.376 490.725 319.198C494.341 318.547 497.953 318.177 501.752 318.177H832.118C865.371 318.177 892.331 345.141 892.331 378.392Z" fill="#2CBEFF"/>
<path d="M811.353 769.065H663.129L500.173 540.513V429.911C500.173 406.983 512.981 387.057 531.832 376.879L811.353 769.065ZM441.53 458.256V378.397C441.53 378.345 441.53 378.276 441.532 378.207C441.53 378.276 441.53 378.345 441.53 378.397V458.256ZM441.532 378.138C441.532 378.104 441.532 378.086 441.532 378.035C441.532 378.086 441.532 378.104 441.532 378.138ZM441.532 377.966C441.532 377.914 441.532 377.897 441.532 377.845C441.532 377.879 441.532 377.914 441.532 377.966ZM441.534 377.759C441.534 377.724 441.534 377.707 441.535 377.672C441.534 377.707 441.534 377.724 441.534 377.759ZM441.537 377.586C441.537 377.552 441.537 377.517 441.537 377.5C441.537 377.517 441.537 377.552 441.537 377.586ZM441.539 377.379C441.539 377.362 441.539 377.345 441.539 377.327C441.539 377.345 441.539 377.362 441.539 377.379ZM441.542 377.207C441.542 377.189 441.544 377.172 441.544 377.155C441.544 377.189 441.542 377.189 441.542 377.207Z" fill="#8BDBFF"/>
<path d="M867.316 757.669L590.723 369.685H693.64L892.331 648.445V708.842C892.331 708.912 892.331 708.998 892.331 709.067C892.331 709.084 892.331 709.102 892.331 709.119C892.331 709.171 892.331 709.24 892.331 709.292C892.331 709.309 892.331 709.327 892.331 709.361C892.331 709.413 892.331 709.465 892.331 709.534C892.317 709.534 892.317 709.551 892.317 709.569C892.091 729.373 882.237 746.963 867.316 757.669Z" fill="#8BDBFF"/>
<path d="M1367.21 769.063H1218.98L1218.96 769.034H1367.18L1367.21 769.063Z" fill="#FFD796"/>
<path d="M1367.19 769.03H1218.96L1056.02 540.512V429.91C1056.02 406.983 1068.83 387.057 1087.67 376.878L1367.19 769.03ZM997.38 458.255V378.396C997.38 378.345 997.38 378.276 997.38 378.207C997.38 378.276 997.38 378.345 997.38 378.396V458.255ZM997.38 378.138C997.38 378.103 997.38 378.086 997.38 378.034C997.38 378.086 997.38 378.103 997.38 378.138ZM997.38 377.965C997.38 377.913 997.38 377.896 997.38 377.844C997.38 377.879 997.38 377.913 997.38 377.965ZM997.38 377.758C997.38 377.723 997.38 377.706 997.38 377.672C997.38 377.706 997.38 377.723 997.38 377.758ZM997.38 377.585C997.38 377.551 997.38 377.516 997.38 377.499C997.38 377.516 997.38 377.551 997.38 377.585ZM997.392 377.379C997.392 377.361 997.392 377.344 997.392 377.327C997.392 377.344 997.392 377.361 997.392 377.379ZM997.392 377.206C997.392 377.189 997.392 377.171 997.392 377.154C997.392 377.189 997.392 377.189 997.392 377.206Z" fill="#8BDBFF"/>
<path d="M1423.16 757.669L1146.57 369.685H1249.49L1448.17 648.445V708.842C1448.17 708.912 1448.17 708.998 1448.17 709.067C1448.17 709.084 1448.17 709.102 1448.17 709.119C1448.17 709.171 1448.17 709.24 1448.17 709.292C1448.17 709.309 1448.17 709.327 1448.17 709.361C1448.17 709.413 1448.17 709.465 1448.17 709.534C1448.17 709.534 1448.17 709.551 1448.17 709.569C1447.93 729.373 1438.07 746.963 1423.16 757.669Z" fill="#8BDBFF"/>
<path d="M1923.05 769.073H1774.82L1774.8 769.042H1923.03L1923.05 769.073Z" fill="#FFD796"/>
<path d="M1923.03 769.03H1774.8L1611.87 540.512V429.91C1611.87 406.983 1624.67 387.057 1643.53 376.878L1923.03 769.03ZM1553.21 458.255V378.396C1553.21 378.345 1553.21 378.276 1553.21 378.207C1553.21 378.276 1553.21 378.345 1553.21 378.396V458.255ZM1553.21 378.138C1553.21 378.103 1553.21 378.086 1553.23 378.034C1553.21 378.086 1553.21 378.103 1553.21 378.138ZM1553.23 377.965C1553.23 377.913 1553.23 377.896 1553.23 377.844C1553.23 377.879 1553.23 377.913 1553.23 377.965ZM1553.23 377.758C1553.23 377.723 1553.23 377.706 1553.23 377.672C1553.23 377.706 1553.23 377.723 1553.23 377.758ZM1553.23 377.585C1553.23 377.551 1553.23 377.516 1553.23 377.499C1553.23 377.516 1553.23 377.551 1553.23 377.585ZM1553.23 377.379C1553.23 377.361 1553.23 377.344 1553.23 377.327C1553.23 377.344 1553.23 377.361 1553.23 377.379ZM1553.23 377.206C1553.23 377.189 1553.23 377.171 1553.23 377.154C1553.23 377.189 1553.23 377.189 1553.23 377.206Z" fill="#8BDBFF"/>
<path d="M1979.02 757.669L1702.42 369.685H1805.33L2004.03 648.445V708.842C2004.03 708.912 2004.03 708.998 2004.03 709.067C2004.03 709.084 2004.03 709.102 2004.03 709.119C2004.03 709.171 2004.03 709.24 2004.03 709.292C2004.03 709.309 2004.03 709.327 2004.03 709.361C2004.03 709.413 2004.03 709.465 2004.03 709.534C2004.03 709.534 2004.03 709.551 2004.03 709.569C2003.79 729.373 1993.93 746.963 1979.02 757.669Z" fill="#8BDBFF"/>
<path d="M2478.9 769.073H2330.68L2330.64 769.036H2478.88L2478.9 769.073Z" fill="#FFD796"/>
<path d="M2478.88 769.034H2330.64L2167.72 540.503V429.908C2167.72 406.985 2180.53 387.048 2199.37 376.873L2478.88 769.034ZM2109.07 458.256V378.393C2109.07 378.337 2109.07 378.28 2109.07 378.205C2109.07 378.28 2109.07 378.337 2109.07 378.393V458.256ZM2109.07 378.149C2109.07 378.112 2109.07 378.074 2109.07 378.037C2109.07 378.074 2109.07 378.112 2109.07 378.149ZM2109.07 377.961C2109.07 377.924 2109.07 377.886 2109.07 377.849C2109.07 377.868 2109.07 377.924 2109.07 377.961ZM2109.07 377.755C2109.07 377.736 2109.07 377.699 2109.07 377.661C2109.07 377.699 2109.07 377.736 2109.07 377.755ZM2109.07 377.586C2109.07 377.548 2109.07 377.511 2109.07 377.492C2109.07 377.511 2109.07 377.548 2109.07 377.586ZM2109.09 377.379C2109.09 377.361 2109.09 377.342 2109.09 377.323C2109.09 377.342 2109.09 377.361 2109.09 377.379ZM2109.09 377.192C2109.09 377.192 2109.09 377.173 2109.09 377.154C2109.09 377.192 2109.09 377.192 2109.09 377.192Z" fill="#8BDBFF"/>
<path d="M2534.84 757.683L2258.25 369.692H2361.18L2559.85 648.458V708.851C2559.85 708.928 2559.85 709.006 2559.85 709.063C2559.85 709.102 2559.85 709.102 2559.85 709.14C2559.85 709.198 2559.85 709.237 2559.85 709.295C2559.85 709.314 2559.85 709.333 2559.85 709.372C2559.85 709.41 2559.85 709.487 2559.85 709.545C2559.85 709.545 2559.85 709.565 2559.85 709.584C2559.62 729.394 2549.76 746.968 2534.84 757.683Z" fill="#8BDBFF"/>
<path d="M3034.75 769.05H2886.52V769.027H3034.73L3034.75 769.05Z" fill="#FFD796"/>
<path d="M3034.73 769.042H2886.5L2723.58 540.505V429.897C2723.58 406.981 2736.36 387.06 2755.21 376.878L3034.73 769.042ZM2664.92 458.248V378.409C2664.92 378.342 2664.92 378.276 2664.92 378.209C2664.92 378.276 2664.92 378.342 2664.92 378.409V458.248ZM2664.92 378.143C2664.92 378.098 2664.92 378.076 2664.92 378.032C2664.92 378.076 2664.92 378.098 2664.92 378.143ZM2664.92 377.965C2664.92 377.921 2664.92 377.899 2664.92 377.854C2664.92 377.876 2664.92 377.921 2664.92 377.965ZM2664.92 377.765C2664.92 377.721 2664.92 377.699 2664.92 377.654C2664.92 377.699 2664.92 377.721 2664.92 377.765ZM2664.92 377.588C2664.92 377.544 2664.92 377.521 2664.92 377.499C2664.92 377.521 2664.92 377.544 2664.92 377.588ZM2664.92 377.388C2664.92 377.366 2664.92 377.344 2664.92 377.322C2664.92 377.344 2664.92 377.366 2664.92 377.388ZM2664.92 377.189V377.166C2664.92 377.189 2664.92 377.189 2664.92 377.189Z" fill="#8BDBFF"/>
<path d="M3090.69 757.692L2814.1 369.696H2917.02L3115.71 648.463V708.861C3115.71 708.929 3115.71 708.997 3115.71 709.065C3115.71 709.088 3115.71 709.111 3115.71 709.133C3115.71 709.179 3115.71 709.247 3115.71 709.292C3115.71 709.315 3115.71 709.338 3115.71 709.36C3115.71 709.406 3115.71 709.474 3115.71 709.542C3115.71 709.542 3115.71 709.564 3115.71 709.587C3115.46 729.387 3105.61 746.987 3090.69 757.692Z" fill="#8BDBFF"/>
<path d="M2724.2 769.079C2723.65 769.059 2723.11 769.039 2722.56 769.018C2716.27 768.755 2710.25 767.518 2704.59 765.449C2710.72 767.68 2717.33 768.937 2724.2 769.039C2724.2 769.039 2724.2 769.059 2724.2 769.079Z" fill="#D28644"/>
<path d="M2724.21 769.019C2717.34 768.935 2710.73 767.685 2704.59 765.456C2681.47 757.062 2664.91 734.919 2664.91 708.861V458.252L2723.56 540.511V760.353C2723.56 763.311 2723.73 766.269 2724.21 769.019ZM2664.93 378.222C2664.93 378.201 2664.93 378.18 2664.93 378.139C2664.93 378.18 2664.93 378.201 2664.93 378.222ZM2664.93 378.034C2664.93 378.014 2664.93 377.993 2664.93 377.951C2664.93 377.993 2664.93 378.014 2664.93 378.034ZM2664.93 377.847C2664.93 377.826 2664.93 377.805 2664.93 377.764C2664.93 377.805 2664.93 377.826 2664.93 377.847ZM2664.93 377.66C2664.93 377.639 2664.93 377.618 2664.93 377.576C2664.93 377.618 2664.93 377.639 2664.93 377.66ZM2664.93 377.493C2664.93 377.451 2664.93 377.43 2664.93 377.389C2664.93 377.43 2664.93 377.451 2664.93 377.493ZM2664.93 377.326C2664.93 377.284 2664.93 377.243 2664.93 377.201C2664.93 377.243 2664.93 377.284 2664.93 377.326ZM2664.93 377.16C2665.59 344.477 2692.3 318.189 2725.15 318.189H2777.39L2814.11 369.702H2783.78C2773.45 369.702 2763.7 372.285 2755.23 376.889L2714.11 319.21C2686.53 324.313 2665.51 348.247 2664.93 377.16Z" fill="#3F8CCA"/>
<path d="M2723.57 540.519L2664.91 458.254V378.405C2664.91 378.343 2664.91 378.282 2664.93 378.221C2664.93 378.2 2664.93 378.179 2664.93 378.159C2664.93 378.118 2664.93 378.077 2664.93 378.036C2664.93 378.016 2664.93 377.995 2664.93 377.954C2664.93 377.913 2664.93 377.872 2664.93 377.852C2664.93 377.831 2664.93 377.811 2664.93 377.77C2664.93 377.729 2664.93 377.709 2664.93 377.668C2664.93 377.647 2664.93 377.606 2664.93 377.586C2664.93 377.545 2664.93 377.525 2664.93 377.504C2664.93 377.463 2664.93 377.422 2664.93 377.381C2664.93 377.361 2664.93 377.34 2664.93 377.32C2664.93 377.279 2664.93 377.238 2664.93 377.197C2664.93 377.197 2664.93 377.197 2664.93 377.156C2665.5 348.254 2686.52 324.326 2714.11 319.208L2755.22 376.89C2736.36 387.063 2723.57 406.979 2723.57 429.905V540.519Z" fill="#81A0CA"/>
<path d="M3115.05 369.694H2917.02L2880.31 318.196H3055.48C3085.78 318.196 3110.9 340.6 3115.05 369.694Z" fill="#3F8CCA"/>
<path d="M2917.02 369.694H2814.11L2777.37 318.186H2880.32L2917.02 369.694Z" fill="#81A0CA"/>
<path d="M2168.37 769.054C2167.82 769.054 2167.26 769.037 2166.72 769.003C2160.44 768.733 2154.4 767.502 2148.75 765.444C2154.89 767.671 2161.49 768.919 2168.36 769.02C2168.36 769.037 2168.37 769.054 2168.37 769.054Z" fill="#D28644"/>
<path d="M2168.36 769.017C2161.49 768.92 2154.9 767.668 2148.75 765.452C2125.63 757.052 2109.08 734.915 2109.08 708.847V458.247L2167.71 540.496V760.347C2167.71 763.314 2167.9 766.261 2168.36 769.017ZM2109.08 378.214C2109.08 378.195 2109.08 378.176 2109.08 378.137C2109.08 378.176 2109.08 378.195 2109.08 378.214ZM2109.08 378.041C2109.08 378.002 2109.08 377.983 2109.08 377.945C2109.08 377.983 2109.08 378.002 2109.08 378.041ZM2109.08 377.848C2109.08 377.829 2109.08 377.79 2109.08 377.752C2109.08 377.79 2109.08 377.829 2109.08 377.848ZM2109.08 377.656C2109.08 377.636 2109.08 377.598 2109.08 377.578C2109.08 377.598 2109.08 377.636 2109.08 377.656ZM2109.08 377.482C2109.08 377.444 2109.08 377.424 2109.08 377.386C2109.08 377.424 2109.08 377.444 2109.08 377.482ZM2109.08 377.309C2109.08 377.27 2109.08 377.232 2109.08 377.193C2109.08 377.232 2109.08 377.27 2109.08 377.309ZM2109.08 377.155C2109.74 344.479 2136.46 318.18 2169.29 318.18H2221.54L2258.26 369.679H2227.94C2217.59 369.679 2207.88 372.28 2199.38 376.866L2158.27 319.201C2130.7 324.306 2109.68 348.255 2109.08 377.155ZM2559.22 369.679H2361.18L2324.46 318.18H2499.65C2529.94 318.18 2555.04 340.587 2559.22 369.679Z" fill="#3F8CCA"/>
<path d="M2167.72 540.501L2109.08 458.247V378.405C2109.08 378.352 2109.08 378.282 2109.08 378.211C2109.08 378.194 2109.08 378.176 2109.08 378.141C2109.08 378.106 2109.08 378.071 2109.08 378.035C2109.08 378.018 2109.08 377.982 2109.08 377.965C2109.08 377.912 2109.08 377.877 2109.08 377.842C2109.08 377.824 2109.08 377.789 2109.08 377.754C2109.08 377.736 2109.08 377.701 2109.08 377.665C2109.08 377.63 2109.08 377.613 2109.08 377.577C2109.08 377.542 2109.08 377.525 2109.08 377.489C2109.09 377.454 2109.09 377.419 2109.09 377.384C2109.09 377.349 2109.09 377.349 2109.09 377.313C2109.09 377.278 2109.09 377.243 2109.09 377.19C2109.09 377.19 2109.09 377.19 2109.09 377.155C2109.67 348.246 2130.68 324.32 2158.27 319.197L2199.38 376.873C2180.52 387.049 2167.72 406.979 2167.72 429.902V540.501Z" fill="#81A0CA"/>
<path d="M2361.19 369.688H2258.28L2221.54 318.169H2324.47L2361.19 369.688Z" fill="#81A0CA"/>
<path d="M1612.52 769.062C1611.97 769.047 1611.42 769.032 1610.87 769.002C1604.6 768.749 1598.56 767.5 1592.9 765.449C1599.04 767.679 1605.64 768.928 1612.52 769.017C1612.52 769.032 1612.52 769.047 1612.52 769.062Z" fill="#D28644"/>
<path d="M1612.51 769.026C1605.64 768.921 1599.04 767.67 1592.91 765.451C1569.79 757.05 1553.23 734.912 1553.23 708.846V458.245L1611.88 540.493V760.344C1611.88 763.32 1612.05 766.261 1612.51 769.026ZM1553.23 378.198C1553.23 378.198 1553.23 378.163 1553.23 378.146C1553.23 378.163 1553.23 378.198 1553.23 378.198ZM1553.25 378.022C1553.25 378.005 1553.25 377.97 1553.25 377.952C1553.25 377.97 1553.25 378.005 1553.25 378.022ZM1553.25 377.846C1553.25 377.811 1553.25 377.793 1553.25 377.758C1553.25 377.793 1553.25 377.811 1553.25 377.846ZM1553.25 377.652C1553.25 377.635 1553.25 377.6 1553.25 377.582C1553.25 377.6 1553.25 377.635 1553.25 377.652ZM1553.25 377.476C1553.25 377.441 1553.25 377.423 1553.25 377.371C1553.25 377.423 1553.25 377.441 1553.25 377.476ZM1553.25 377.318C1553.25 377.265 1553.25 377.23 1553.25 377.194C1553.25 377.23 1553.25 377.265 1553.25 377.318ZM1553.25 377.142C1553.9 344.471 1580.6 318.177 1613.45 318.177H1665.7L1702.42 369.692H1672.09C1661.76 369.692 1652.03 372.281 1643.53 376.877L1602.42 319.198C1574.84 324.306 1553.83 348.24 1553.25 377.142ZM2003.38 369.692H1805.33L1768.62 318.177H1943.81C1974.1 318.177 1999.22 340.597 2003.38 369.692Z" fill="#3F8CCA"/>
<path d="M1611.87 540.501L1553.23 458.247V378.405C1553.23 378.352 1553.23 378.282 1553.23 378.211C1553.23 378.194 1553.23 378.176 1553.23 378.141C1553.23 378.106 1553.23 378.071 1553.23 378.035C1553.23 378.018 1553.23 377.982 1553.23 377.965C1553.23 377.912 1553.23 377.877 1553.23 377.842C1553.23 377.824 1553.23 377.789 1553.23 377.754C1553.23 377.736 1553.23 377.701 1553.23 377.665C1553.23 377.63 1553.23 377.613 1553.23 377.577C1553.23 377.542 1553.23 377.525 1553.23 377.489C1553.23 377.454 1553.23 377.419 1553.23 377.384C1553.23 377.349 1553.23 377.349 1553.23 377.313C1553.23 377.278 1553.23 377.243 1553.23 377.19C1553.23 377.19 1553.23 377.19 1553.23 377.155C1553.83 348.246 1574.83 324.32 1602.42 319.197L1643.53 376.873C1624.67 387.049 1611.87 406.979 1611.87 429.902V540.501Z" fill="#81A0CA"/>
<path d="M1805.33 369.692H1702.42L1665.7 318.177H1768.63L1805.33 369.692Z" fill="#81A0CA"/>
<path d="M1056.67 769.077C1056.1 769.062 1055.57 769.047 1055.02 769.018C1048.67 768.75 1042.59 767.501 1036.89 765.405C1043.06 767.665 1049.72 768.943 1056.65 769.033C1056.65 769.047 1056.67 769.062 1056.67 769.077Z" fill="#D28644"/>
<path d="M1056.67 769.026C1049.73 768.921 1043.08 767.653 1036.9 765.398C1013.86 756.944 997.385 734.841 997.385 708.846V458.245L1056.02 540.493V760.344C1056.02 763.32 1056.21 766.261 1056.67 769.026ZM997.385 378.198C997.385 378.198 997.385 378.163 997.385 378.146C997.385 378.163 997.385 378.198 997.385 378.198ZM997.385 378.022C997.385 378.005 997.385 377.97 997.385 377.952C997.385 377.97 997.385 378.005 997.385 378.022ZM997.385 377.846C997.385 377.811 997.385 377.793 997.385 377.758C997.385 377.793 997.385 377.811 997.385 377.846ZM997.385 377.652C997.385 377.635 997.385 377.6 997.385 377.582C997.385 377.6 997.385 377.635 997.385 377.652ZM997.385 377.476C997.385 377.441 997.385 377.423 997.397 377.371C997.385 377.423 997.385 377.441 997.385 377.476ZM997.397 377.318C997.397 377.265 997.397 377.23 997.397 377.194C997.397 377.23 997.397 377.265 997.397 377.318ZM997.397 377.142C998.051 344.471 1024.76 318.177 1057.6 318.177H1109.85L1146.57 369.692H1116.24C1105.9 369.692 1096.18 372.281 1087.68 376.877L1046.57 319.198C1018.98 324.306 997.984 348.24 997.397 377.142ZM1447.54 369.692H1249.49L1212.77 318.177H1387.96C1418.25 318.177 1443.37 340.597 1447.54 369.692Z" fill="#3F8CCA"/>
<path d="M1056.02 540.501L997.38 458.247V378.405C997.38 378.352 997.38 378.282 997.38 378.211C997.38 378.194 997.38 378.176 997.38 378.141C997.38 378.106 997.38 378.071 997.38 378.035C997.38 378.018 997.38 377.982 997.38 377.965C997.38 377.912 997.38 377.877 997.38 377.842C997.38 377.824 997.38 377.789 997.38 377.754C997.38 377.736 997.38 377.701 997.38 377.665C997.38 377.63 997.38 377.613 997.38 377.577C997.38 377.542 997.38 377.525 997.38 377.489C997.38 377.454 997.38 377.419 997.394 377.384C997.394 377.349 997.394 377.349 997.394 377.313C997.394 377.278 997.394 377.243 997.394 377.19C997.394 377.19 997.394 377.19 997.394 377.155C997.98 348.246 1018.98 324.32 1046.57 319.197L1087.67 376.873C1068.83 387.049 1056.02 406.979 1056.02 429.902V540.501Z" fill="#81A0CA"/>
<path d="M1249.49 369.692H1146.57L1109.85 318.177H1212.77L1249.49 369.692Z" fill="#81A0CA"/>
<path d="M500.823 769.062C500.272 769.044 499.725 769.026 499.179 769.009C498.427 768.973 497.68 768.938 496.937 768.868C498.22 768.974 499.517 769.026 500.823 769.062ZM442.526 719.783C442.524 719.783 442.524 719.783 442.524 719.783H442.526ZM442.493 719.607C442.493 719.607 442.491 719.589 442.489 719.572C442.491 719.589 442.493 719.607 442.493 719.607ZM442.461 719.431C442.459 719.413 442.457 719.413 442.456 719.396C442.457 719.413 442.459 719.413 442.461 719.431ZM442.429 719.237C442.426 719.237 442.426 719.22 442.422 719.202C442.424 719.22 442.426 719.237 442.429 719.237ZM442.397 719.079C442.394 719.043 442.392 719.026 442.389 719.026C442.392 719.026 442.394 719.043 442.397 719.079ZM442.367 718.885C442.364 718.867 442.36 718.85 442.357 718.832C442.36 718.85 442.364 718.867 442.367 718.885ZM442.338 718.709C442.332 718.691 442.33 718.656 442.327 718.638C442.33 718.656 442.332 718.691 442.338 718.709ZM442.308 718.533C442.304 718.498 442.299 718.48 442.295 718.445C442.299 718.48 442.304 718.498 442.308 718.533ZM442.279 718.357C442.274 718.304 442.269 718.286 442.264 718.251C442.269 718.286 442.274 718.304 442.279 718.357ZM442.251 718.163C442.244 718.128 442.239 718.092 442.235 718.057C442.239 718.092 442.244 718.145 442.251 718.163ZM442.223 717.987C442.218 717.952 442.211 717.916 442.207 717.864C442.211 717.916 442.218 717.952 442.223 717.987ZM442.195 717.793C442.19 717.758 442.184 717.723 442.177 717.687C442.184 717.723 442.19 717.758 442.195 717.793ZM442.168 717.617C442.161 717.582 442.156 717.546 442.151 717.494C442.156 717.546 442.163 717.582 442.168 717.617ZM442.142 717.423C442.135 717.388 442.13 717.335 442.123 717.3C442.13 717.335 442.135 717.388 442.142 717.423ZM442.114 717.247C442.109 717.212 442.102 717.159 442.096 717.106C442.102 717.159 442.109 717.212 442.114 717.247ZM442.089 717.053C442.082 717.018 442.077 716.965 442.07 716.93C442.077 716.965 442.082 717.018 442.089 717.053ZM442.065 716.877C442.058 716.824 442.052 716.772 442.045 716.719C442.052 716.772 442.059 716.824 442.065 716.877ZM442.04 716.684C442.033 716.631 442.028 716.596 442.021 716.543C442.028 716.596 442.033 716.631 442.04 716.684ZM442.015 716.49C442.008 716.454 442.003 716.402 441.998 716.349C442.003 716.402 442.008 716.454 442.015 716.49ZM441.992 716.314C441.985 716.261 441.98 716.208 441.973 716.173C441.98 716.208 441.985 716.261 441.992 716.314ZM441.969 716.12C441.962 716.067 441.957 716.014 441.95 715.979C441.957 716.014 441.964 716.067 441.969 716.12ZM441.947 715.944C441.941 715.891 441.934 715.838 441.927 715.785C441.934 715.838 441.941 715.891 441.947 715.944ZM441.925 715.75C441.918 715.697 441.913 715.644 441.908 715.592C441.913 715.644 441.918 715.697 441.925 715.75ZM441.904 715.556C441.899 715.503 441.892 715.451 441.887 715.398C441.892 715.451 441.899 715.503 441.904 715.556ZM441.883 715.38C441.878 715.31 441.873 715.257 441.866 715.204C441.873 715.257 441.878 715.31 441.883 715.38ZM441.864 715.187C441.857 715.134 441.851 715.063 441.844 715.01C441.851 715.063 441.857 715.134 441.864 715.187ZM441.844 714.993C441.839 714.94 441.832 714.887 441.829 714.834C441.832 714.887 441.839 714.94 441.844 714.993ZM441.825 714.799C441.82 714.746 441.813 714.693 441.807 714.623C441.813 714.693 441.82 714.746 441.825 714.799ZM441.806 714.623C441.8 714.57 441.797 714.5 441.79 714.447C441.797 714.5 441.8 714.57 441.806 714.623ZM441.79 714.429C441.785 714.359 441.777 714.306 441.772 714.253C441.777 714.306 441.785 714.359 441.79 714.429ZM441.772 714.235C441.767 714.183 441.762 714.13 441.756 714.059C441.762 714.13 441.767 714.183 441.772 714.235ZM441.755 714.042C441.751 713.989 441.746 713.918 441.74 713.866C441.746 713.918 441.751 713.989 441.755 714.042ZM441.74 713.866C441.735 713.813 441.73 713.742 441.725 713.69C441.73 713.742 441.735 713.795 441.74 713.866ZM441.723 713.672C441.719 713.601 441.714 713.549 441.711 713.478C441.714 713.549 441.718 713.601 441.723 713.672ZM441.709 713.478C441.705 713.425 441.7 713.355 441.696 713.302C441.7 713.355 441.705 713.425 441.709 713.478ZM441.695 713.284C441.691 713.214 441.686 713.161 441.681 713.091C441.686 713.161 441.691 713.214 441.695 713.284ZM441.681 713.091C441.677 713.038 441.672 712.967 441.668 712.897C441.674 712.967 441.677 713.038 441.681 713.091ZM441.668 712.897C441.663 712.844 441.659 712.774 441.656 712.721C441.659 712.774 441.663 712.844 441.668 712.897ZM441.656 712.703C441.652 712.65 441.647 712.598 441.645 712.545C441.647 712.598 441.652 712.65 441.656 712.703ZM441.644 712.509C441.64 712.457 441.637 712.404 441.635 712.351C441.637 712.404 441.64 712.457 441.644 712.509ZM441.631 712.333C441.63 712.263 441.626 712.21 441.622 712.157C441.626 712.21 441.63 712.263 441.631 712.333ZM441.622 712.14C441.619 712.069 441.615 712.016 441.614 711.946C441.615 712.016 441.619 712.069 441.622 712.14ZM441.612 711.946C441.608 711.893 441.607 711.823 441.603 711.77C441.607 711.823 441.608 711.893 441.612 711.946ZM441.601 711.752C441.6 711.682 441.598 711.629 441.594 711.576C441.598 711.629 441.6 711.699 441.601 711.752ZM441.593 711.558C441.593 711.506 441.589 711.453 441.587 711.4C441.589 711.453 441.593 711.506 441.593 711.558ZM441.586 711.365C441.584 711.312 441.582 711.259 441.58 711.206C441.582 711.259 441.584 711.312 441.586 711.365ZM441.577 711.171C441.575 711.118 441.575 711.065 441.573 711.03C441.575 711.065 441.575 711.118 441.577 711.171ZM441.57 710.977C441.57 710.924 441.568 710.889 441.566 710.836C441.568 710.872 441.57 710.924 441.57 710.977ZM441.564 710.784C441.563 710.731 441.561 710.678 441.561 710.625C441.561 710.678 441.563 710.731 441.564 710.784ZM441.559 710.59C441.557 710.537 441.556 710.484 441.554 710.449C441.556 710.484 441.557 710.537 441.559 710.59ZM441.554 710.396C441.552 710.343 441.55 710.29 441.549 710.237C441.55 710.29 441.552 710.343 441.554 710.396ZM441.549 710.202C441.547 710.15 441.547 710.097 441.545 710.044C441.547 710.097 441.547 710.15 441.549 710.202ZM441.545 710.009C441.543 709.973 441.543 709.938 441.541 709.903C441.543 709.938 441.543 709.973 441.545 710.009ZM441.541 709.797C441.541 709.78 441.54 709.744 441.54 709.709C441.54 709.744 441.541 709.78 441.541 709.797ZM441.538 709.621C441.538 709.586 441.538 709.568 441.538 709.533C441.538 709.568 441.538 709.586 441.538 709.621ZM441.536 709.41C441.536 709.41 441.536 709.392 441.536 709.375C441.536 709.392 441.536 709.41 441.536 709.41ZM441.534 709.234V709.216V709.234ZM441.534 709.04C441.533 708.969 441.533 708.917 441.533 708.846C441.533 708.917 441.533 708.969 441.534 709.04ZM441.534 378.198C441.534 378.198 441.534 378.163 441.534 378.146C441.534 378.163 441.534 378.198 441.534 378.198ZM441.534 378.022C441.534 378.005 441.534 377.97 441.536 377.952C441.534 377.97 441.534 378.005 441.534 378.022ZM441.536 377.846C441.536 377.811 441.538 377.793 441.538 377.758C441.538 377.793 441.536 377.811 441.536 377.846ZM441.538 377.653C441.538 377.635 441.538 377.6 441.54 377.582C441.538 377.6 441.538 377.635 441.538 377.653ZM441.54 377.476C441.542 377.441 441.541 377.424 441.541 377.371C441.541 377.424 441.542 377.441 441.54 377.476ZM441.541 377.318C441.543 377.265 441.545 377.23 441.545 377.195C441.545 377.23 441.543 377.265 441.541 377.318ZM441.547 377.142C442.206 344.524 468.808 318.265 501.57 318.177C497.838 318.194 494.282 318.564 490.725 319.198C463.141 324.306 442.13 348.24 441.547 377.142ZM833.556 318.194C833.544 318.194 833.53 318.194 833.518 318.194C833.53 318.194 833.544 318.194 833.556 318.194ZM833.384 318.194C833.37 318.194 833.343 318.194 833.331 318.194C833.343 318.194 833.37 318.194 833.384 318.194ZM833.209 318.194C833.183 318.194 833.171 318.194 833.144 318.194C833.171 318.194 833.183 318.194 833.209 318.194ZM833.037 318.177C833.01 318.177 832.97 318.177 832.944 318.177C832.984 318.177 833.01 318.177 833.037 318.177ZM832.85 318.177C832.824 318.177 832.797 318.177 832.757 318.177C832.797 318.177 832.824 318.177 832.85 318.177ZM832.664 318.177C832.637 318.177 832.597 318.177 832.57 318.177C832.597 318.177 832.637 318.177 832.664 318.177ZM832.477 318.177C832.438 318.177 832.41 318.177 832.369 318.177C832.41 318.177 832.438 318.177 832.477 318.177ZM832.304 318.177C832.237 318.177 832.17 318.177 832.118 318.177C832.17 318.177 832.237 318.177 832.304 318.177Z" fill="#D28644"/>
<path d="M500.823 769.062C499.517 769.026 498.22 768.974 496.937 768.868C469.617 766.666 447.392 746.289 442.526 719.783H442.524C442.514 719.73 442.503 719.678 442.493 719.607C442.493 719.607 442.491 719.589 442.489 719.572C442.48 719.537 442.47 719.484 442.461 719.431C442.459 719.413 442.457 719.413 442.456 719.396C442.447 719.343 442.438 719.29 442.429 719.237C442.426 719.237 442.424 719.22 442.422 719.202C442.415 719.167 442.406 719.114 442.397 719.079C442.394 719.043 442.392 719.026 442.389 719.026C442.382 718.973 442.375 718.938 442.367 718.885C442.364 718.867 442.36 718.85 442.357 718.832C442.35 718.797 442.345 718.744 442.338 718.709C442.332 718.691 442.33 718.656 442.327 718.638C442.32 718.603 442.315 718.568 442.308 718.533C442.304 718.498 442.299 718.48 442.295 718.445C442.29 718.41 442.285 718.374 442.279 718.357C442.274 718.304 442.269 718.286 442.264 718.251C442.26 718.216 442.255 718.198 442.251 718.163C442.244 718.145 442.239 718.092 442.235 718.057C442.23 718.04 442.227 718.004 442.223 717.987C442.218 717.952 442.211 717.916 442.207 717.864C442.202 717.846 442.198 717.811 442.195 717.793C442.19 717.758 442.184 717.723 442.177 717.687C442.174 717.652 442.17 717.635 442.168 717.617C442.163 717.582 442.156 717.546 442.151 717.494C442.147 717.476 442.144 717.441 442.142 717.423C442.135 717.388 442.13 717.335 442.123 717.3C442.119 717.282 442.117 717.265 442.114 717.247C442.109 717.212 442.102 717.159 442.096 717.106C442.094 717.106 442.091 717.071 442.089 717.053C442.082 717.018 442.077 716.965 442.07 716.93C442.068 716.895 442.066 716.877 442.065 716.877C442.059 716.824 442.052 716.772 442.045 716.719C442.043 716.719 442.042 716.701 442.04 716.684C442.033 716.631 442.028 716.596 442.021 716.543C442.019 716.525 442.017 716.507 442.015 716.49C442.008 716.454 442.003 716.402 441.998 716.349C441.996 716.331 441.994 716.331 441.992 716.314C441.985 716.261 441.98 716.208 441.973 716.173C441.971 716.155 441.971 716.138 441.969 716.12C441.964 716.067 441.957 716.014 441.95 715.979C441.948 715.961 441.948 715.944 441.947 715.944C441.941 715.891 441.934 715.838 441.927 715.785C441.927 715.768 441.925 715.768 441.925 715.75C441.918 715.697 441.913 715.644 441.908 715.592C441.906 715.574 441.906 715.556 441.904 715.556C441.899 715.503 441.892 715.451 441.887 715.398C441.885 715.398 441.883 715.38 441.883 715.38C441.878 715.31 441.873 715.257 441.866 715.204L441.864 715.187C441.857 715.134 441.851 715.063 441.844 715.01C441.844 715.01 441.844 715.01 441.844 714.993C441.839 714.94 441.832 714.887 441.829 714.834C441.827 714.817 441.825 714.817 441.825 714.799C441.82 714.746 441.813 714.693 441.807 714.623H441.806C441.8 714.57 441.797 714.5 441.79 714.447C441.79 714.429 441.79 714.429 441.79 714.429C441.785 714.359 441.777 714.306 441.772 714.253C441.772 714.253 441.772 714.253 441.772 714.235C441.767 714.183 441.762 714.13 441.756 714.059C441.756 714.059 441.756 714.059 441.755 714.042C441.751 713.989 441.746 713.918 441.74 713.866C441.735 713.795 441.73 713.742 441.725 713.69C441.723 713.672 441.723 713.672 441.723 713.672C441.718 713.601 441.714 713.549 441.711 713.478C441.709 713.478 441.709 713.478 441.709 713.478C441.705 713.425 441.7 713.355 441.696 713.302C441.696 713.302 441.696 713.284 441.695 713.284C441.691 713.214 441.686 713.161 441.681 713.091C441.677 713.038 441.674 712.967 441.668 712.897C441.663 712.844 441.659 712.774 441.656 712.721C441.656 712.703 441.656 712.703 441.656 712.703C441.652 712.65 441.647 712.598 441.645 712.545C441.644 712.527 441.644 712.527 441.644 712.509C441.64 712.457 441.637 712.404 441.635 712.351C441.633 712.333 441.633 712.333 441.631 712.333C441.63 712.263 441.626 712.21 441.622 712.157V712.14C441.619 712.069 441.615 712.016 441.614 711.946C441.612 711.946 441.612 711.946 441.612 711.946C441.608 711.893 441.607 711.823 441.603 711.77C441.601 711.77 441.601 711.752 441.601 711.752C441.6 711.699 441.598 711.629 441.594 711.576C441.594 711.558 441.594 711.558 441.593 711.558C441.593 711.506 441.589 711.453 441.587 711.4C441.587 711.4 441.586 711.382 441.586 711.365C441.584 711.312 441.582 711.259 441.58 711.206C441.579 711.188 441.579 711.171 441.577 711.171C441.575 711.118 441.575 711.065 441.573 711.03C441.571 711.012 441.571 710.995 441.57 710.977C441.57 710.924 441.568 710.872 441.566 710.836C441.564 710.819 441.564 710.784 441.564 710.784C441.563 710.731 441.561 710.678 441.561 710.625C441.561 710.625 441.559 710.607 441.559 710.59C441.557 710.537 441.556 710.484 441.554 710.449C441.554 710.431 441.554 710.414 441.554 710.396C441.552 710.343 441.55 710.29 441.549 710.237C441.549 710.237 441.549 710.22 441.549 710.202C441.547 710.15 441.547 710.097 441.545 710.044C441.545 710.026 441.545 710.026 441.545 710.009C441.543 709.973 441.543 709.938 441.541 709.903C441.541 709.868 441.541 709.85 441.541 709.797C441.541 709.78 441.54 709.744 441.54 709.709C441.54 709.691 441.538 709.639 441.538 709.621C441.538 709.586 441.538 709.568 441.538 709.533C441.538 709.498 441.538 709.463 441.536 709.41C441.536 709.41 441.536 709.392 441.536 709.375C441.536 709.322 441.536 709.287 441.534 709.234V709.216C441.534 709.163 441.534 709.093 441.534 709.04C441.533 708.969 441.533 708.917 441.533 708.846V458.245L500.175 540.493V760.344C500.175 763.32 500.362 766.279 500.823 769.062ZM441.547 377.142C442.13 348.24 463.141 324.306 490.725 319.198C494.282 318.564 497.838 318.194 501.57 318.177C501.63 318.177 501.69 318.177 501.752 318.177H554.001L590.722 369.692H560.393C550.058 369.692 540.333 372.281 531.835 376.878L490.725 319.198C463.141 324.306 442.13 348.24 441.547 377.142ZM891.678 369.692H693.64L656.924 318.177H832.118C832.17 318.177 832.237 318.177 832.304 318.177C832.317 318.177 832.343 318.177 832.369 318.177C832.41 318.177 832.438 318.177 832.477 318.177C832.503 318.177 832.544 318.177 832.57 318.177C832.597 318.177 832.637 318.177 832.664 318.177C832.704 318.177 832.73 318.177 832.757 318.177C832.797 318.177 832.824 318.177 832.85 318.177C832.877 318.177 832.917 318.177 832.944 318.177C832.97 318.177 833.01 318.177 833.037 318.177C833.063 318.177 833.104 318.194 833.144 318.194C833.171 318.194 833.183 318.194 833.209 318.194C833.25 318.194 833.29 318.194 833.331 318.194C833.343 318.194 833.37 318.194 833.384 318.194C833.424 318.194 833.477 318.194 833.518 318.194C833.53 318.194 833.544 318.194 833.556 318.194C863.197 318.881 887.571 341.055 891.678 369.692Z" fill="#3F8CCA"/>
<path d="M500.173 540.501L441.53 458.247V378.405C441.53 378.352 441.53 378.282 441.532 378.211C441.532 378.194 441.532 378.176 441.532 378.141C441.532 378.106 441.532 378.071 441.532 378.035C441.532 378.018 441.532 377.982 441.533 377.965C441.533 377.912 441.533 377.877 441.533 377.842C441.533 377.824 441.535 377.789 441.535 377.754C441.535 377.736 441.535 377.701 441.537 377.665C441.537 377.63 441.537 377.613 441.537 377.577C441.537 377.542 441.537 377.525 441.537 377.489C441.539 377.454 441.539 377.419 441.54 377.384C441.54 377.349 441.54 377.349 441.54 377.313C441.54 377.278 441.542 377.243 441.542 377.19C441.542 377.19 441.544 377.19 441.544 377.155C442.128 348.246 463.139 324.32 490.722 319.197L531.831 376.873C512.981 387.049 500.173 406.979 500.173 429.902V540.501Z" fill="#81A0CA"/>
<path d="M693.64 369.692H590.722L554.001 318.177H656.924L693.64 369.692Z" fill="#81A0CA"/>
<path d="M3103.39 820.019H2772.95C2742.46 820.019 2717.26 797.412 2713.26 767.958C2716.34 768.556 2719.4 768.901 2722.57 769.015C2723.12 769.038 2723.67 769.061 2724.2 769.061C2724.52 769.061 2724.82 769.061 2725.14 769.061H3055.49C3072.4 769.061 3087.68 762.1 3098.61 750.888C3109.2 740.045 3115.75 725.18 3115.75 708.822V378.405C3115.75 375.648 3115.54 372.914 3115.2 370.249C3142.77 375.74 3163.61 400.092 3163.61 429.362V759.803C3163.61 793.069 3136.66 820.019 3103.39 820.019Z" fill="#FFDEA9"/>
<path d="M3098.63 750.882C3109.04 740.199 3115.52 725.638 3115.73 709.558V709.535C3115.73 709.467 3115.73 709.399 3115.73 709.353C3115.73 709.331 3115.73 709.308 3115.73 709.285C3115.73 709.24 3115.73 709.172 3115.73 709.127C3115.73 709.104 3115.73 709.081 3115.73 709.059C3115.73 708.991 3115.73 708.922 3115.73 708.854V378.395C3115.73 375.628 3115.55 372.929 3115.16 370.253C3115.18 370.253 3115.18 370.253 3115.21 370.253C3115.57 372.907 3115.75 375.628 3115.75 378.395V708.809C3115.75 725.184 3109.22 740.04 3098.63 750.882Z" fill="#A0E2FF"/>
<path d="M2724.2 769.079C2723.65 769.079 2723.11 769.039 2722.56 769.018C2723.11 769.039 2723.65 769.059 2724.2 769.079Z" fill="#EBC8AB"/>
<path d="M2547.54 820.032H2217.1C2186.61 820.032 2161.42 797.416 2157.44 767.952C2160.5 768.539 2163.57 768.891 2166.72 769.009C2167.27 769.028 2167.81 769.067 2168.36 769.067C2168.67 769.067 2168.99 769.067 2169.28 769.067H2499.64C2516.55 769.067 2531.83 762.102 2542.76 750.892C2553.37 740.034 2559.9 725.185 2559.9 708.829V378.388C2559.9 375.63 2559.72 372.91 2559.35 370.25C2586.94 375.728 2607.75 400.085 2607.75 429.353V759.794C2607.75 793.073 2580.81 820.032 2547.54 820.032Z" fill="#FFDEA9"/>
<path d="M2542.77 750.884C2553.19 740.208 2559.67 725.639 2559.86 709.567C2559.86 709.567 2559.86 709.548 2559.86 709.529C2559.86 709.471 2559.86 709.413 2559.86 709.356C2559.86 709.336 2559.86 709.317 2559.86 709.298C2559.86 709.24 2559.86 709.182 2559.86 709.124C2559.86 709.105 2559.86 709.086 2559.86 709.066C2559.86 709.009 2559.86 708.912 2559.86 708.854V378.401C2559.86 375.626 2559.69 372.928 2559.32 370.25C2559.32 370.25 2559.34 370.25 2559.36 370.25C2559.71 372.928 2559.9 375.645 2559.9 378.401V708.835C2559.9 725.177 2553.36 740.034 2542.77 750.884Z" fill="#A0E2FF"/>
<path d="M2168.37 769.054C2167.83 769.054 2167.26 769.037 2166.72 769.003C2167.26 769.037 2167.82 769.054 2168.37 769.054Z" fill="#EBC8AB"/>
<path d="M1991.7 820.028H1661.24C1630.77 820.028 1605.58 797.41 1601.58 767.961C1604.64 768.549 1607.72 768.894 1610.87 769.015C1611.42 769.033 1611.97 769.067 1612.51 769.067C1612.82 769.067 1613.13 769.067 1613.44 769.067H1943.8C1960.7 769.067 1975.98 762.098 1986.91 750.893C1997.51 740.033 2004.05 725.179 2004.05 708.82V378.394C2004.05 375.645 2003.86 372.913 2003.49 370.25C2031.09 375.731 2051.91 400.096 2051.91 429.355V759.798C2051.91 793.069 2024.95 820.028 1991.7 820.028Z" fill="#FFDEA9"/>
<path d="M1986.91 750.894C1997.34 740.189 2003.82 725.629 2004.03 709.564C2004.03 709.564 2004.03 709.547 2004.03 709.53C2004.03 709.461 2004.03 709.409 2004.03 709.357C2004.03 709.322 2004.03 709.322 2004.03 709.288C2004.03 709.236 2004.03 709.184 2004.03 709.132C2004.03 709.098 2004.03 709.097 2004.03 709.063C2004.03 708.994 2004.03 708.924 2004.03 708.855V378.395C2004.03 375.628 2003.84 372.931 2003.46 370.25C2003.48 370.25 2003.49 370.25 2003.49 370.25C2003.86 372.913 2004.05 375.646 2004.05 378.395V708.821C2004.05 725.18 1997.51 740.034 1986.91 750.894Z" fill="#A0E2FF"/>
<path d="M1612.52 769.071C1611.97 769.071 1611.42 769.042 1610.87 769.012C1611.42 769.042 1611.97 769.056 1612.52 769.071Z" fill="#EBC8AB"/>
<path d="M1435.85 820.028H1105.39C1074.91 820.028 1049.73 797.41 1045.74 767.961C1048.81 768.549 1051.87 768.894 1055.02 769.015C1055.57 769.033 1056.11 769.067 1056.67 769.067C1056.98 769.067 1057.29 769.067 1057.59 769.067H1387.95C1404.86 769.067 1420.15 762.098 1431.08 750.893C1441.68 740.033 1448.21 725.179 1448.21 708.82V378.394C1448.21 375.645 1448.02 372.913 1447.66 370.25C1475.24 375.731 1496.06 400.096 1496.06 429.355V759.798C1496.06 793.069 1469.12 820.028 1435.85 820.028Z" fill="#FFDEA9"/>
<path d="M1431.08 750.894C1441.5 740.189 1447.99 725.629 1448.16 709.564C1448.16 709.564 1448.16 709.547 1448.16 709.53C1448.16 709.461 1448.16 709.409 1448.16 709.357C1448.16 709.322 1448.16 709.322 1448.16 709.288C1448.16 709.236 1448.16 709.184 1448.16 709.132C1448.16 709.098 1448.16 709.097 1448.16 709.063C1448.16 708.994 1448.16 708.924 1448.16 708.855V378.395C1448.16 375.628 1447.99 372.931 1447.63 370.25C1447.64 370.25 1447.64 370.25 1447.66 370.25C1448.02 372.913 1448.21 375.646 1448.21 378.395V708.821C1448.21 725.18 1441.68 740.034 1431.08 750.894Z" fill="#A0E2FF"/>
<path d="M1056.68 769.071C1056.11 769.071 1055.57 769.042 1055.02 769.012C1055.57 769.042 1056.11 769.056 1056.68 769.071Z" fill="#EBC8AB"/>
<path d="M880.007 820.028H549.552C519.072 820.028 493.875 797.41 489.891 767.961C492.955 768.549 496.021 768.894 499.177 769.015C499.723 769.033 500.273 769.067 500.823 769.067C500.822 769.067 500.821 769.067 500.821 769.067C501.129 769.067 501.437 769.067 501.748 769.067H832.114C832.167 769.067 832.221 769.067 832.288 769.067C832.3 769.067 832.328 769.067 832.354 769.067C832.38 769.067 832.421 769.067 832.447 769.067C832.487 769.067 832.515 769.067 832.555 769.067C832.567 769.067 832.581 769.067 832.594 769.067C865.381 768.808 891.94 742.333 892.314 709.564C892.314 709.564 892.314 709.546 892.328 709.529C892.328 709.46 892.328 709.408 892.328 709.356C892.328 709.322 892.328 709.321 892.328 709.287C892.328 709.235 892.328 709.183 892.328 709.131C892.328 709.097 892.328 709.097 892.328 709.062C892.328 708.993 892.328 708.924 892.328 708.855V378.394C892.328 378.308 892.328 378.256 892.328 378.169C892.328 378.135 892.328 378.118 892.328 378.083C892.328 378.031 892.328 377.979 892.328 377.945C892.328 377.91 892.328 377.876 892.328 377.841C892.328 377.789 892.328 377.737 892.314 377.703C892.314 377.633 892.314 377.564 892.314 377.495C892.314 377.478 892.314 377.443 892.314 377.409C892.314 377.374 892.314 377.322 892.314 377.27C892.314 377.253 892.314 377.218 892.314 377.201C892.314 377.149 892.314 377.097 892.314 377.028C892.3 376.855 892.3 376.665 892.3 376.475C892.3 376.458 892.288 376.458 892.288 376.44C892.288 376.388 892.288 376.336 892.288 376.267C892.288 376.267 892.288 376.25 892.288 376.233C892.288 376.164 892.274 376.077 892.274 375.991C892.274 375.939 892.274 375.887 892.274 375.852C892.274 375.818 892.274 375.801 892.274 375.766C892.26 375.697 892.26 375.645 892.26 375.576C892.26 375.558 892.26 375.558 892.26 375.558C892.181 373.777 892.02 371.996 891.781 370.25C919.38 375.714 940.221 400.079 940.221 429.355V759.798C940.221 793.069 913.26 820.028 880.007 820.028Z" fill="#FFDEA9"/>
<path d="M832.114 769.067C832.167 769.067 832.221 769.067 832.288 769.067C832.221 769.067 832.167 769.067 832.114 769.067ZM832.354 769.067C832.38 769.067 832.421 769.067 832.447 769.067C832.421 769.067 832.38 769.067 832.354 769.067ZM832.555 769.067C832.567 769.067 832.58 769.067 832.594 769.067C832.58 769.067 832.567 769.067 832.555 769.067ZM892.328 378.394C892.328 378.308 892.328 378.256 892.328 378.17C892.328 378.256 892.328 378.308 892.328 378.394ZM892.328 378.083C892.328 378.031 892.328 377.979 892.328 377.945C892.328 377.979 892.328 378.031 892.328 378.083ZM892.328 377.841C892.328 377.789 892.328 377.737 892.314 377.703C892.328 377.737 892.328 377.789 892.328 377.841ZM892.314 377.495C892.314 377.478 892.314 377.443 892.314 377.409C892.314 377.443 892.314 377.478 892.314 377.495ZM892.314 377.27C892.314 377.253 892.314 377.219 892.314 377.201C892.314 377.219 892.314 377.253 892.314 377.27ZM892.3 376.475C892.3 376.458 892.288 376.458 892.288 376.44C892.288 376.458 892.3 376.458 892.3 376.475ZM892.288 376.267C892.288 376.267 892.288 376.25 892.288 376.233C892.288 376.25 892.288 376.267 892.288 376.267ZM892.274 375.991C892.274 375.939 892.274 375.887 892.274 375.853C892.274 375.887 892.274 375.939 892.274 375.991ZM892.274 375.766C892.26 375.697 892.26 375.645 892.26 375.576C892.26 375.645 892.26 375.697 892.274 375.766ZM892.26 375.559C892.181 373.777 892.008 372.014 891.768 370.25H891.781C892.02 371.996 892.181 373.777 892.26 375.559Z" fill="#A0E2FF"/>
<path d="M892.309 709.573C892.309 709.558 892.309 709.558 892.323 709.543C892.309 709.558 892.309 709.558 892.309 709.573ZM892.323 709.36C892.323 709.345 892.323 709.33 892.323 709.299C892.323 709.33 892.323 709.345 892.323 709.36ZM892.323 709.132C892.323 709.117 892.323 709.102 892.323 709.071C892.323 709.102 892.323 709.117 892.323 709.132Z" fill="#CBEFFF"/>
<path d="M500.822 769.071C500.271 769.071 499.722 769.042 499.175 769.012C499.72 769.042 500.268 769.056 500.82 769.071C500.82 769.071 500.82 769.071 500.822 769.071Z" fill="#EBC8AB"/>
<path d="M182.136 378.392V708.846C182.136 714.693 181.305 720.347 179.729 725.613C174.45 744.053 160.646 758.776 142.765 765.257C136.28 767.758 129.24 769.062 121.921 769.062H24.6462V318.177H121.921C155.179 318.177 182.136 345.141 182.136 378.392Z" fill="#2CBEFF"/>
<path d="M166.664 810.538H111.372C88.3576 810.538 69.6677 792.03 69.3937 769.065H121.918C129.238 769.065 136.278 767.764 142.762 765.266C160.644 758.779 174.447 744.052 179.726 725.631C181.302 720.341 182.133 714.686 182.133 708.858V698.815V639.285V547.284V368.364C182.133 366.057 182.041 363.819 181.765 361.599C207.702 368.26 226.881 391.798 226.881 419.88V750.314C226.881 783.583 199.921 810.538 166.664 810.538Z" fill="#FFDEA9"/>
<path d="M121.917 769.071H69.3937C69.3922 768.903 69.3906 768.735 69.3906 768.567V759.034H116.741L142.762 765.267C136.277 767.773 129.237 769.071 121.917 769.071ZM179.726 725.624L177.373 722.324C180.439 715.114 182.133 707.154 182.133 698.813V708.85C182.133 714.686 181.301 720.354 179.726 725.624Z" fill="#A0E2FF"/>
<path d="M121.915 759.054H116.739L111.077 757.69L48.9316 670.493V542.183L177.372 722.324C168.214 743.904 146.832 759.054 121.915 759.054Z" fill="#8BDBFF"/>
<path d="M142.759 765.276L116.739 759.057H121.915C146.833 759.057 168.213 743.909 177.37 722.33L179.723 725.644C174.443 744.061 160.64 758.8 142.759 765.276Z" fill="#CBEFFF"/>
<path d="M182.134 639.274L48.9335 452.407V360.491L182.134 547.289V639.274Z" fill="#8BDBFF"/>
<path d="M3855.33 341.348C3840 341.348 3827.55 353.82 3827.55 369.129V1145.77C3827.55 1173.88 3850.39 1196.73 3878.48 1196.73H3951.06V341.348H3855.33ZM3974.21 1243.05H3878.48C3824.86 1243.05 3781.23 1199.41 3781.23 1145.77V369.129C3781.23 328.259 3814.46 295.029 3855.33 295.029H3974.21C3987.02 295.029 3997.38 305.394 3997.38 318.174V1219.89C3997.38 1232.68 3987.02 1243.05 3974.21 1243.05Z" fill="#6B184E"/>
<path d="M83.2845 924.994H24.6123V1425.25H83.2845C108.868 1425.25 129.605 1404.52 129.605 1378.93V971.314C129.605 945.73 108.868 924.994 83.2845 924.994Z" fill="#EF3D30"/>
<path d="M83.2873 1425.25H48.934V1345.39H83.2873C108.857 1345.39 129.607 1324.64 129.607 1299.07V1378.93C129.607 1404.49 108.857 1425.25 83.2873 1425.25Z" fill="#C73239"/>
<path d="M3687.99 1506.43C3708.33 1487.24 3721.03 1460.06 3721.03 1429.97V1421.39H3740.3V1429.97C3740.3 1464.8 3718.61 1494.55 3687.99 1506.43ZM3740.3 1230.73H3721.03V934.252V426.579H3740.3V1230.73Z" fill="#FFDEA9"/>
<path d="M3740.3 1421.39H3721.03V1230.73H3740.3V1421.39Z" fill="white"/>
<path d="M129.605 1029.22C129.605 1003.65 108.854 982.897 83.2844 982.897H48.9323V924.993H83.2844C108.854 924.993 129.605 945.744 129.605 971.314V1029.22Z" fill="#F8A8A2"/>
<path d="M3697.88 373.023V934.249H3246.97V373.023C3246.97 356.799 3254.03 342.177 3265.24 332.254C3274.88 323.459 3287.77 318.182 3301.84 318.182H3643.04C3673.3 318.182 3697.88 342.728 3697.88 373.023Z" fill="#2CBEFF"/>
<path d="M47.7757 1402.1H83.2862C96.0575 1402.1 106.448 1391.69 106.448 1378.93V971.308C106.448 958.525 96.0575 948.142 83.2862 948.142H47.7757V1402.1ZM83.2862 1448.42H24.6157C11.8247 1448.42 1.4541 1438.03 1.4541 1425.25V924.99C1.4541 912.194 11.8247 901.824 24.6157 901.824H83.2862C121.6 901.824 152.769 932.988 152.769 971.308V1378.93C152.769 1417.24 121.6 1448.42 83.2862 1448.42Z" fill="#6B184E"/>
<path d="M47.7755 1256.17H106.447V1138.07H47.7755V1256.17ZM129.609 1302.49H24.6154C11.8248 1302.49 1.4541 1292.13 1.4541 1279.33V1114.91C1.4541 1102.11 11.8248 1091.73 24.6154 1091.73H129.609C142.398 1091.73 152.769 1102.11 152.769 1114.91V1279.33C152.769 1292.13 142.398 1302.49 129.609 1302.49Z" fill="#6B184E"/>
<path d="M3599.36 911.095H3421.11L3306.98 713.441V426.363C3306.98 420.413 3307.92 414.668 3309.69 409.282L3599.36 911.095Z" fill="#8BDBFF"/>
<path d="M3674.71 854.388L3395.98 371.533H3510.32L3674.71 656.242V854.388Z" fill="#8BDBFF"/>
<path d="M3301.83 341.349C3284.33 341.349 3270.13 355.575 3270.13 373.022V1227.74C3270.13 1243.04 3278.23 1257.36 3291.8 1266.04C3359.48 1309.35 3407.12 1376.06 3425.96 1453.9C3430.87 1474.47 3448.48 1488.8 3468.75 1488.8H3615.87C3648.31 1488.8 3674.7 1462.42 3674.7 1429.98V373.022C3674.7 355.575 3660.5 341.349 3643.03 341.349H3301.83ZM3615.87 1535.12H3468.75C3426.97 1535.12 3390.83 1506.17 3380.93 1464.74C3364.91 1398.63 3324.4 1341.9 3266.83 1305.06C3239.88 1287.82 3223.81 1258.91 3223.81 1227.74V373.022C3223.81 330.026 3258.81 295.027 3301.83 295.027H3643.03C3686.02 295.027 3721.02 330.026 3721.02 373.022V1429.98C3721.02 1487.95 3673.86 1535.12 3615.87 1535.12Z" fill="#6B184E"/>
<path d="M2725.12 341.355C2704.67 341.355 2688.03 357.97 2688.03 378.396V708.825C2688.03 729.251 2704.67 745.889 2725.12 745.889H3055.52C3075.95 745.889 3092.57 729.251 3092.57 708.825V378.396C3092.57 357.97 3075.95 341.355 3055.52 341.355H2725.12ZM3055.52 792.196H2725.12C2679.13 792.196 2641.72 754.813 2641.72 708.825V378.396C2641.72 332.431 2679.13 295.024 2725.12 295.024H3055.52C3101.49 295.024 3138.9 332.431 3138.9 378.396V708.825C3138.9 754.813 3101.49 792.196 3055.52 792.196Z" fill="#6B184E"/>
<path d="M2169.26 341.346C2148.82 341.346 2132.2 357.963 2132.2 378.385V708.811C2132.2 729.252 2148.82 745.87 2169.26 745.87H2499.69C2520.11 745.87 2536.75 729.252 2536.75 708.811V378.385C2536.75 357.963 2520.11 341.346 2499.69 341.346H2169.26ZM2499.69 792.188H2169.26C2123.29 792.188 2085.88 754.799 2085.88 708.811V378.385C2085.88 332.416 2123.29 295.027 2169.26 295.027H2499.69C2545.66 295.027 2583.07 332.416 2583.07 378.385V708.811C2583.07 754.799 2545.66 792.188 2499.69 792.188Z" fill="#6B184E"/>
<path d="M1613.4 341.351C1592.97 341.351 1576.35 357.969 1576.35 378.404V708.824C1576.35 729.258 1592.97 745.876 1613.4 745.876H1943.82C1964.26 745.876 1980.88 729.258 1980.88 708.824V378.404C1980.88 357.969 1964.26 341.351 1943.82 341.351H1613.4ZM1943.82 792.196H1613.4C1567.42 792.196 1530.03 754.806 1530.03 708.824V378.404C1530.03 332.439 1567.42 295.031 1613.4 295.031H1943.82C1989.81 295.031 2027.2 332.439 2027.2 378.404V708.824C2027.2 754.806 1989.81 792.196 1943.82 792.196Z" fill="#6B184E"/>
<path d="M1057.56 341.351C1037.12 341.351 1020.51 357.969 1020.51 378.404V708.824C1020.51 729.258 1037.12 745.876 1057.56 745.876H1387.98C1408.42 745.876 1425.03 729.258 1425.03 708.824V378.404C1425.03 357.969 1408.42 341.351 1387.98 341.351H1057.56ZM1387.98 792.196H1057.56C1011.59 792.196 974.177 754.806 974.177 708.824V378.404C974.177 332.439 1011.59 295.031 1057.56 295.031H1387.98C1433.96 295.031 1471.35 332.439 1471.35 378.404V708.824C1471.35 754.806 1433.96 792.196 1387.98 792.196Z" fill="#6B184E"/>
<path d="M501.716 341.351C481.283 341.351 464.659 357.969 464.659 378.404V708.824C464.659 729.258 481.283 745.876 501.716 745.876H832.136C852.564 745.876 869.191 729.258 869.191 708.824V378.404C869.191 357.969 852.564 341.351 832.136 341.351H501.716ZM832.136 792.196H501.716C455.739 792.196 418.337 754.806 418.337 708.824V378.404C418.337 332.439 455.739 295.031 501.716 295.031H832.136C878.11 295.031 915.511 332.439 915.511 378.404V708.824C915.511 754.806 878.11 792.196 832.136 792.196Z" fill="#6B184E"/>
<path d="M121.918 792.231H24.6417C11.8535 792.231 1.4834 781.863 1.4834 769.062C1.4834 756.28 11.8535 745.911 24.6417 745.911H121.918C142.352 745.911 158.974 729.294 158.974 708.859V378.403C158.974 357.969 142.352 341.351 121.918 341.351H24.6417C11.8535 341.351 1.4834 330.983 1.4834 318.182C1.4834 305.399 11.8535 295.031 24.6417 295.031H121.918C167.892 295.031 205.294 332.438 205.294 378.403V708.859C205.294 754.824 167.892 792.231 121.918 792.231Z" fill="#6B184E"/>
<path d="M3697.88 957.417H3246.96C3234.18 957.417 3223.81 947.044 3223.81 934.256C3223.81 921.458 3234.18 911.098 3246.96 911.098H3697.88C3710.65 911.098 3721.02 921.458 3721.02 934.256C3721.02 947.044 3710.65 957.417 3697.88 957.417Z" fill="#6B184E"/>
<path d="M3352.74 1131.11H3329.59C3319.35 1131.11 3311.06 1122.81 3311.06 1112.59V1024.58C3311.06 1014.35 3319.35 1006.04 3329.59 1006.04H3352.74C3362.98 1006.04 3371.27 1014.35 3371.27 1024.58V1112.59C3371.27 1122.81 3362.98 1131.11 3352.74 1131.11Z" fill="#6B184E"/>
<path d="M3119.44 1291.31C3122.22 1291.31 3125 1291.36 3127.78 1291.46C3250.71 1295.8 3350.67 1401.67 3350.67 1527.47V1594.59C3350.67 1603.06 3357.59 1609.93 3366.1 1609.93H3934.5C3943.01 1609.93 3949.92 1603.06 3949.92 1594.59V318.17C3949.92 249.867 3894.32 194.292 3825.96 194.292H178.997C107.28 194.292 48.9315 252.648 48.9315 324.351V1482.16C48.9315 1498.99 60.9906 1513.24 77.6043 1516.07L577.618 1600.42C577.899 1600.45 578.182 1600.51 578.469 1600.58C584.746 1601.84 589.247 1599.14 591.38 1597.4C593.501 1595.67 597.058 1591.83 597.058 1585.48V1522.54C597.058 1459.24 622.16 1400.16 667.735 1356.16C713.294 1312.19 773.27 1289.18 836.656 1291.46C959.47 1295.87 1059.38 1401.75 1059.38 1527.47V1594.59C1059.38 1603.06 1066.3 1609.93 1074.8 1609.93H1116.11C1116.43 1609.93 1116.76 1609.93 1117.08 1609.93H1124.68C1131.88 1607.14 1140.04 1595.64 1140.04 1585.48V1522.54C1140.04 1514.56 1140.43 1506.58 1141.2 1498.8C1153.62 1378.23 1258.24 1287.14 1379.69 1291.46C1491.67 1295.46 1586.63 1384.35 1600.57 1498.24C1601.79 1507.7 1602.43 1517.57 1602.43 1527.47V1594.59C1602.43 1603.06 1609.31 1609.93 1617.78 1609.93H2872.86C2881.32 1609.93 2888.2 1603.06 2888.2 1594.59V1522.54C2888.2 1459.27 2913.29 1400.21 2958.81 1356.24C3002.36 1314.19 3059.11 1291.31 3119.44 1291.31M1122.42 1659.16C1119.83 1659.16 1117.2 1658.96 1114.56 1658.58H1074.8C1039.47 1658.58 1010.74 1629.87 1010.74 1594.59V1527.47C1010.74 1427.61 931.857 1343.55 834.909 1340.07C784.964 1338.24 737.489 1356.44 701.513 1391.16C665.516 1425.89 645.691 1472.56 645.691 1522.54V1585.48C645.691 1604.79 637.099 1622.88 622.115 1635.1C607.235 1647.23 587.946 1652.02 569.149 1648.31L69.4843 1564.02C29.3817 1557.2 0.301514 1522.79 0.301514 1482.16V324.351C0.301514 225.816 80.4645 145.656 178.997 145.656H3825.96C3921.15 145.656 3998.56 223.034 3998.56 318.17V1594.59C3998.56 1629.87 3969.81 1658.58 3934.5 1658.58H3366.1C3330.78 1658.58 3302.04 1629.87 3302.04 1594.59V1527.47C3302.04 1427.56 3223.11 1343.5 3126.07 1340.07C3075.97 1338.24 3028.57 1356.5 2992.61 1391.23C2956.64 1425.95 2936.84 1472.58 2936.84 1522.54V1594.59C2936.84 1629.87 2908.15 1658.58 2872.86 1658.58H1617.78C1582.49 1658.58 1553.79 1629.87 1553.79 1594.59V1527.47C1553.79 1519.66 1553.3 1511.87 1552.32 1504.32C1541.23 1413.76 1466.28 1343.21 1377.97 1340.07C1282.02 1336.67 1199.37 1408.56 1189.59 1503.7C1188.99 1509.79 1188.67 1516.16 1188.67 1522.54V1585.48C1188.67 1618.89 1163.26 1651.94 1133.03 1658.03C1132.75 1658.08 1132.47 1658.13 1132.19 1658.19C1129.04 1658.83 1125.76 1659.16 1122.42 1659.16" fill="#6B184E"/>
<path d="M4020.54 1389.73H3897.4C3880.14 1389.73 3866.16 1403.73 3866.16 1421V1634.25H3941.91C4007.5 1634.25 4060.69 1581.07 4060.69 1515.46V1429.88C4060.69 1407.7 4042.72 1389.73 4020.54 1389.73Z" fill="#FFB640"/>
<path d="M3869.46 1630.9H3941.9C4005.54 1630.9 4057.35 1579.12 4057.35 1515.47V1429.88C4057.35 1409.59 4040.82 1393.07 4020.53 1393.07H3897.42C3882 1393.07 3869.46 1405.6 3869.46 1421V1630.9ZM3941.9 1637.57H3862.79V1421C3862.79 1401.92 3878.32 1386.4 3897.42 1386.4H4020.53C4044.53 1386.4 4064.02 1405.91 4064.02 1429.88V1515.47C4064.02 1582.8 4009.24 1637.57 3941.9 1637.57Z" fill="#6B184E"/>
<path d="M3977.21 1642.25C3981.79 1638.13 3985.78 1633.37 3989.05 1628.11C4021.93 1614.29 4047.57 1586.47 4058.39 1552.15C4049.85 1594.95 4018.31 1629.47 3977.21 1642.25Z" fill="#63ABB9"/>
<path d="M3941.91 1647.59H3866.12V1637.58H3941.91C3958.59 1637.58 3974.54 1634.21 3989.04 1628.11C3985.79 1633.38 3981.78 1638.13 3977.21 1642.26C3966.05 1645.71 3954.19 1647.59 3941.91 1647.59Z" fill="#6B184E"/>
<path d="M3941.89 1630.91H3869.47V1520.92H3941.89C3987.26 1520.92 4026.64 1495.45 4046.62 1458.07C4051.2 1462 4054.9 1466.95 4057.35 1472.56V1515.47C4057.35 1579.12 4005.55 1630.91 3941.89 1630.91Z" fill="#D28644"/>
<path d="M3941.91 1637.57H3866.16V1520.92H3869.49V1630.9H3941.91C4005.56 1630.9 4057.36 1579.12 4057.36 1515.46V1472.56C4059.47 1477.45 4060.66 1482.85 4060.66 1488.52V1441.65C4060.69 1442.17 4060.69 1442.69 4060.69 1443.21V1528.8C4060.69 1536.78 4059.9 1544.58 4058.39 1552.14C4047.57 1586.46 4021.93 1614.29 3989.04 1628.1C3974.55 1634.21 3958.6 1637.57 3941.91 1637.57Z" fill="#6B184E"/>
<path d="M3869.47 1465.53V1421C3869.47 1405.6 3881.99 1393.07 3897.39 1393.07H4020.52C4040.81 1393.07 4057.32 1409.55 4057.35 1429.81C4054.96 1439.77 4051.34 1449.25 4046.62 1458.07C4039.62 1452.04 4030.48 1448.41 4020.52 1448.41H3897.42C3885.18 1448.41 3874.62 1455.37 3869.47 1465.53Z" fill="#FFDEA9"/>
<path d="M3866.09 1479.62V1420.98C3866.09 1403.76 3880.1 1389.76 3897.42 1389.76H4020.55C4042.68 1389.76 4060.65 1407.73 4060.65 1429.88V1441.65C4060.45 1436.88 4059.43 1432.34 4057.74 1428.14C4057.6 1428.7 4057.49 1429.25 4057.35 1429.81C4057.32 1409.54 4040.8 1393.06 4020.55 1393.06H3897.42C3882.01 1393.06 3869.48 1405.6 3869.48 1421V1465.53C3867.31 1469.77 3866.09 1474.56 3866.09 1479.62Z" fill="#BC97AF"/>
<path d="M4057.35 1472.56C4054.9 1466.95 4051.2 1462 4046.62 1458.07C4051.34 1449.25 4054.96 1439.77 4057.35 1429.81C4057.35 1429.84 4057.35 1429.85 4057.35 1429.88V1472.56Z" fill="#EBC8AB"/>
<path d="M4060.65 1488.52C4060.65 1482.85 4059.48 1477.45 4057.35 1472.56V1429.88C4057.35 1429.85 4057.35 1429.84 4057.35 1429.81C4057.49 1429.25 4057.6 1428.7 4057.74 1428.14C4059.42 1432.34 4060.45 1436.88 4060.65 1441.65V1488.52Z" fill="#BC97AF"/>
<path d="M3890.44 1609.93H3941.88C3993.99 1609.93 4036.35 1567.55 4036.35 1515.47V1429.88C4036.35 1421.16 4029.28 1414.05 4020.55 1414.05H3897.4C3893.56 1414.05 3890.44 1417.17 3890.44 1421V1609.93ZM3941.88 1658.56H3866.14C3852.71 1658.56 3841.8 1647.68 3841.8 1634.24V1421C3841.8 1390.34 3866.74 1365.41 3897.4 1365.41H4020.55C4056.08 1365.41 4084.99 1394.33 4084.99 1429.88V1515.47C4084.99 1594.37 4020.81 1658.56 3941.88 1658.56Z" fill="#6B184E"/>
<path d="M4220.48 387.444V557.737C4220.48 599.429 4186.63 633.271 4144.95 633.271C4125.3 633.271 4109.3 617.284 4109.3 597.617V403.431H3697.86V353.47C3697.86 333.951 3713.62 318.176 3733.15 318.176H4151.22C4189.49 318.176 4220.48 349.163 4220.48 387.444Z" fill="#FFB640"/>
<path d="M3701.19 400.091H4112.66V597.611C4112.66 615.437 4127.13 629.931 4144.97 629.931C4184.76 629.931 4217.16 597.543 4217.16 557.732V387.436C4217.16 351.077 4187.59 321.504 4151.22 321.504H3733.15C3715.52 321.504 3701.19 335.836 3701.19 353.465V400.091ZM4144.97 636.597C4123.48 636.597 4106 619.104 4106 597.611V406.756H3694.53V353.465C3694.53 332.169 3711.87 314.838 3733.15 314.838H4151.22C4191.25 314.838 4223.82 347.41 4223.82 387.436V557.732C4223.82 601.225 4188.45 636.597 4144.97 636.597Z" fill="#6B184E"/>
<path d="M4193.83 369.853C4182.08 360.666 4167.29 355.199 4151.21 355.199H3733.14C3728.89 355.199 3724.79 355.958 3721.01 357.332V353.465C3721.01 346.774 3726.46 341.334 3733.14 341.334H4151.21C4170.43 341.334 4186.92 353.134 4193.83 369.853Z" fill="#FFDEA9"/>
<path d="M4144.97 610.103C4138.08 610.103 4132.48 604.5 4132.48 597.608V539.914C4136.38 541.368 4140.57 542.168 4144.97 542.168C4165.29 542.168 4183.76 534.13 4197.33 521.049V557.729C4197.33 586.608 4173.85 610.103 4144.97 610.103Z" fill="#D28644"/>
<path d="M3721.02 380.265H4109.32C4122.11 380.265 4132.47 390.625 4132.47 403.424V597.612C4132.47 604.506 4138.06 610.106 4144.96 610.106C4173.82 610.106 4197.32 586.612 4197.32 557.731V387.44C4197.32 362.013 4176.63 341.332 4151.2 341.332H3733.16C3726.47 341.332 3721.02 346.772 3721.02 353.465V380.265ZM4144.96 656.425C4112.54 656.425 4086.14 630.039 4086.14 597.612V426.587H3697.87C3685.08 426.587 3674.7 416.212 3674.7 403.424V353.465C3674.7 321.239 3700.92 295.013 3733.16 295.013H4151.2C4202.17 295.013 4243.64 336.48 4243.64 387.44V557.731C4243.64 612.146 4199.39 656.425 4144.96 656.425Z" fill="#6B184E"/>
<path d="M1339.73 24.3199H631.942C588.896 24.3199 553.998 59.2083 553.998 102.27V169.95H1417.67V102.27C1417.67 59.2083 1382.76 24.3199 1339.73 24.3199Z" fill="#FFA829"/>
<path d="M553.997 145.651H553.978V102.262C553.978 75.9377 567.034 52.6869 587.007 38.5779C567.038 52.6869 553.997 75.957 553.997 102.262V145.651Z" fill="#B7F6F4"/>
<path d="M553.977 150.604V145.657H553.996V148.887C553.982 149.466 553.977 150.026 553.977 150.604Z" fill="#BC97AF"/>
<path d="M1417.64 150.614C1417.64 107.533 1382.77 72.6837 1339.71 72.6837H631.909C589.484 72.6837 554.91 106.621 553.996 148.886V145.664V102.272C553.996 75.9454 567.034 52.6866 587.004 38.5721C599.702 29.6025 615.196 24.3412 631.909 24.3412H1339.71C1382.77 24.3412 1417.64 59.21 1417.64 102.272V150.614Z" fill="#FFD89E"/>
<path d="M578.312 145.634H1393.35V102.261C1393.35 72.6999 1369.28 48.636 1339.73 48.636H631.941C602.37 48.636 578.312 72.6999 578.312 102.261V145.634ZM1417.67 194.271H553.996C540.563 194.271 529.678 183.393 529.678 169.952V102.261C529.678 45.8776 575.552 -1.52588e-05 631.941 -1.52588e-05H1339.73C1396.11 -1.52588e-05 1441.97 45.8776 1441.97 102.261V169.952C1441.97 183.393 1431.09 194.271 1417.67 194.271Z" fill="#6B184E"/>
<path d="M3243.88 24.3282H2536.12C2493.06 24.3282 2458.15 59.2162 2458.15 102.269V169.962H3321.83V102.269C3321.83 59.2162 3286.94 24.3282 3243.88 24.3282Z" fill="#FFA829"/>
<path d="M2458.17 145.644V102.256C2458.17 76.0299 2471.09 52.8575 2490.94 38.7299C2471.09 52.8575 2458.17 76.0492 2458.17 102.256V145.644Z" fill="#B7F6F4"/>
<path d="M3321.82 150.591C3321.82 107.538 3286.96 72.6496 3243.88 72.6496H2536.07C2493.64 72.6496 2459.06 106.628 2458.17 148.939V145.658V102.27C2458.17 76.0499 2471.1 52.871 2490.95 38.7194C2503.67 29.6682 2519.26 24.3285 2536.07 24.3285H3243.88C3286.96 24.3285 3321.82 59.1926 3321.82 102.27V150.591Z" fill="#FFD89E"/>
<path d="M2482.49 145.634H3297.5V102.264C3297.5 72.7008 3273.45 48.6547 3243.89 48.6547H2536.1C2506.53 48.6547 2482.49 72.7008 2482.49 102.264V145.634ZM3321.83 194.28H2458.15C2444.73 194.28 2433.84 183.39 2433.84 169.969V102.264C2433.84 45.8838 2479.71 0.00827026 2536.1 0.00827026H3243.89C3300.27 0.00827026 3346.14 45.8838 3346.14 102.264V169.969C3346.14 183.39 3335.25 194.28 3321.83 194.28Z" fill="#6B184E"/>
<path d="M3306.96 911.095H3270.12V649.655L3306.96 713.442V911.095ZM3309.7 409.289L3277.25 353.075C3283.05 345.921 3291.9 341.352 3301.82 341.352H3378.56L3395.97 371.535H3361.82C3347.75 371.535 3334.87 376.809 3325.24 385.608C3318.14 391.874 3312.73 400.02 3309.7 409.289ZM3674.67 371.535H3510.3L3492.89 341.352H3643.02C3659.99 341.352 3673.88 354.746 3674.67 371.535Z" fill="#3F8CCA"/>
<path d="M3306.98 713.448L3270.14 649.642V373.029C3270.14 365.462 3272.79 358.516 3277.23 353.073L3309.7 409.288C3307.93 414.659 3306.98 420.388 3306.98 426.356V713.448Z" fill="#81A0CA"/>
<path d="M3510.32 371.519H3395.98L3378.56 341.347H3492.9L3510.32 371.519Z" fill="#81A0CA"/>
<path d="M3270.14 911.091H3253.64V373.029C3253.64 356.818 3260.7 342.176 3271.92 332.267C3281.54 323.456 3294.43 318.174 3308.49 318.174H3649.68C3661.18 318.174 3671.85 321.704 3680.66 327.77C3676.85 335.535 3674.7 344.242 3674.7 353.472V371.513H3674.68C3673.89 354.753 3660.01 341.34 3643.04 341.34H3492.88H3378.57H3301.83C3291.92 341.34 3283.05 345.915 3277.25 353.053C3272.8 358.518 3270.14 365.473 3270.14 373.029V649.649V911.091Z" fill="#6B184E"/>
<path d="M3306.98 934.251H3253.64V911.091H3270.15H3306.98V934.251Z" fill="#6B184E"/>
<path d="M3704.46 371.583C3703.99 371.583 3703.52 371.531 3703.04 371.531H3674.7V353.468C3674.7 344.239 3676.86 335.536 3680.67 327.78C3694.68 337.403 3703.99 353.389 3704.46 371.583Z" fill="#6B184E"/>
</svg>
