<svg width="451" height="451" viewBox="0 0 451 451" fill="none" xmlns="http://www.w3.org/2000/svg">
<path d="M424.502 200.128C438.355 310.168 360.342 410.648 250.289 424.488C140.195 438.341 39.7686 360.328 25.9286 250.275C22.6086 223.981 24.5686 198.261 30.9153 174.155L30.902 174.101C51.142 97.1414 116.342 36.4614 200.142 25.9147C296.809 13.7414 386.115 72.4213 415.742 161.528C419.862 173.848 422.822 186.755 424.502 200.128Z" fill="#7C6B6A"/>
<path d="M225.558 48.6209C218.111 48.6209 210.65 49.0906 203.148 50.0299C106.57 62.1877 37.8775 150.647 50.0353 247.238C62.1931 343.816 150.679 412.523 247.23 400.352C294.023 394.461 335.717 370.722 364.635 333.457C393.553 296.219 406.248 249.936 400.357 203.156C394.466 156.35 370.714 114.657 333.462 85.7384C302.182 61.463 264.528 48.6209 225.558 48.6209ZM225.035 450.378C113.28 450.378 16.0848 366.991 1.77995 253.304C-13.7326 130.116 73.8813 17.2736 197.07 1.77441C320.311 -13.7113 433.113 73.8893 448.599 197.078C464.112 320.279 376.498 433.108 253.309 448.607C243.809 449.815 234.362 450.378 225.035 450.378Z" fill="#6B184E"/>
<path d="M329.102 212.113C336.329 269.5 295.662 321.874 238.275 329.1C180.889 336.314 128.515 295.647 121.289 238.26C114.062 180.873 154.742 128.5 212.115 121.287C269.502 114.06 321.875 154.727 329.102 212.113Z" fill="#D3DAE2"/>
<path d="M225.262 123.794C221.062 123.794 216.822 124.048 212.542 124.594C157.062 131.568 117.622 182.381 124.595 237.848C131.582 293.314 182.435 332.781 237.849 325.794C293.329 318.808 332.769 267.994 325.795 212.528C319.355 161.341 275.582 123.794 225.262 123.794ZM225.115 333.261C171.502 333.261 124.849 293.234 117.982 238.688C110.542 179.568 152.582 125.421 211.702 117.981C240.355 114.381 268.662 122.141 291.462 139.835C314.262 157.541 328.809 183.061 332.409 211.701C339.849 270.821 297.809 324.968 238.689 332.408C234.129 332.981 229.595 333.261 225.115 333.261Z" fill="#6B184E"/>
<path d="M140.102 247.38C139.155 243.74 138.422 239.994 137.942 236.167C131.889 188.06 166.102 143.994 214.209 137.94C217.929 137.474 221.609 137.247 225.262 137.247C259.195 137.247 289.702 156.94 304.209 186.58C286.729 173.714 265.209 166.234 242.369 166.234C237.982 166.234 233.555 166.5 229.102 167.074C184.289 172.727 149.689 205.86 140.102 247.38Z" fill="#B49FB5"/>
<path d="M254.102 221.555C256.115 237.515 244.795 252.088 228.835 254.101C212.862 256.115 198.289 244.795 196.289 228.835C194.275 212.861 205.595 198.288 221.555 196.275C237.529 194.275 252.102 205.581 254.102 221.555Z" fill="#6B184E"/>
<path d="M237.595 165.34C238.462 172.193 233.609 178.446 226.755 179.3C219.902 180.166 213.662 175.313 212.795 168.46C211.929 161.62 216.782 155.366 223.635 154.5C230.489 153.646 236.729 158.5 237.595 165.34Z" fill="#6B184E"/>
<path d="M237.595 281.913C238.462 288.753 233.609 295.006 226.755 295.873C219.902 296.726 213.662 291.873 212.795 285.033C211.929 278.179 216.782 271.939 223.635 271.073C230.489 270.206 236.729 275.059 237.595 281.913Z" fill="#6B184E"/>
<path d="M179.569 184.527C185.929 187.207 188.916 194.54 186.236 200.9C183.556 207.26 176.235 210.247 169.875 207.567C163.515 204.887 160.529 197.553 163.209 191.193C165.875 184.833 173.209 181.847 179.569 184.527Z" fill="#6B184E"/>
<path d="M280.515 242.806C286.875 245.486 289.862 252.819 287.195 259.179C284.515 265.539 277.182 268.526 270.822 265.846C264.462 263.166 261.475 255.846 264.155 249.486C266.835 243.126 274.155 240.139 280.515 242.806Z" fill="#6B184E"/>
<path d="M167.169 244.368C172.676 240.208 180.516 241.288 184.676 246.781C188.849 252.274 187.769 260.114 182.276 264.288C176.769 268.461 168.929 267.381 164.769 261.888C160.596 256.381 161.676 248.541 167.169 244.368Z" fill="#6B184E"/>
<path d="M268.116 186.087C273.622 181.914 281.462 182.994 285.636 188.501C289.796 193.994 288.716 201.834 283.222 206.007C277.729 210.181 269.889 209.101 265.716 203.594C261.542 198.101 262.622 190.261 268.116 186.087Z" fill="#6B184E"/>
<path d="M225.115 363.394C182.315 363.394 144.222 337.234 128.329 298.514C150.809 328.101 186.329 346.714 225.115 346.714C230.155 346.714 235.249 346.394 240.369 345.754C274.195 341.487 303.062 323.634 322.142 298.354C308.275 332.141 277.102 357.701 238.289 362.567C233.862 363.127 229.462 363.394 225.115 363.394Z" fill="#C4BCBC"/>
<path d="M225.262 137.248C221.609 137.248 217.929 137.474 214.209 137.941C166.102 143.994 131.889 188.061 137.942 236.168C143.995 284.274 188.035 318.528 236.182 312.434C284.289 306.381 318.502 262.314 312.449 214.208C306.862 169.808 268.889 137.248 225.262 137.248ZM225.115 346.714C164.809 346.714 112.355 301.714 104.635 240.368C96.2755 173.888 143.542 112.994 210.022 104.634C242.235 100.594 274.089 109.314 299.715 129.208C325.355 149.114 341.702 177.808 345.755 210.021C354.115 276.501 306.849 337.381 240.369 345.754C235.249 346.394 230.155 346.714 225.115 346.714Z" fill="#6B184E"/>
<path d="M110.582 184.861C98.0754 172.687 82.0487 166.181 64.7154 166.181C62.7287 166.181 60.742 166.274 58.7286 166.447C80.342 105.514 134.755 58.6342 203.155 50.0342C210.649 49.0875 218.115 48.6208 225.555 48.6208C264.529 48.6208 302.182 61.4608 333.462 85.7408C354.449 102.034 371.142 122.367 382.782 145.394C379.809 144.901 376.862 144.661 373.942 144.661C357.862 144.661 342.729 151.874 330.262 164.007C322.529 150.727 312.222 138.927 299.715 129.207C278.182 112.487 252.262 103.661 225.409 103.661C220.302 103.661 215.169 103.981 210.022 104.634C162.902 110.554 125.435 142.874 110.582 184.861Z" fill="#775262"/>
<path d="M30.9155 174.154L30.9022 174.1C51.1422 97.1404 116.342 36.4604 200.142 25.9137C208.649 24.8337 217.116 24.3137 225.476 24.3137C312.089 24.3137 388.729 80.2737 415.742 161.527C404.822 152.34 393.662 147.18 382.782 145.394C371.142 122.367 354.449 102.034 333.462 85.7404C302.182 61.4604 264.529 48.6204 225.555 48.6204C218.115 48.6204 210.649 49.0871 203.155 50.0338C134.755 58.6338 80.3421 105.514 58.7288 166.447C49.6355 167.207 40.2622 169.74 30.9155 174.154Z" fill="#6B184E"/>
<path d="M123.249 201.247C119.622 194.994 115.355 189.514 110.582 184.861C125.435 142.874 162.902 110.554 210.022 104.634C215.169 103.981 220.302 103.661 225.409 103.661C252.262 103.661 278.182 112.487 299.715 129.207C312.222 138.927 322.529 150.727 330.262 164.007C326.422 167.741 322.849 171.941 319.569 176.541C314.662 137.474 275.089 119.941 232.715 119.941C177.169 119.941 116.809 150.047 123.249 201.247Z" fill="#6B184E"/>
</svg>
